<?xml version="1.0" encoding="utf-8"?>
<!-- Generator: Adobe Illustrator 25.3.1, SVG Export Plug-In . SVG Version: 6.00 Build 0)  -->
<svg version="1.1" id="图层_1" xmlns="http://www.w3.org/2000/svg" xmlns:xlink="http://www.w3.org/1999/xlink" x="0px" y="0px"
	 viewBox="0 0 356.9 30" style="enable-background:new 0 0 356.9 30;" xml:space="preserve">
<style type="text/css">
	.st0{fill:#003E89;}
</style>
<path class="st0" d="M184,5.6c0,3.1-2.5,5.6-5.6,5.6c-3.1,0-5.6-2.5-5.6-5.6c0-3.1,2.5-5.6,5.6-5.6C181.5,0,184,2.5,184,5.6z
	 M178.4,3c-1.4,0-2.6,1.2-2.6,2.6c0,1.4,1.2,2.6,2.6,2.6c1.4,0,2.6-1.2,2.6-2.6C181,4.2,179.8,3,178.4,3z M177.5,18.7
	C177.5,18.6,177.5,18.6,177.5,18.7c-1-3.2-3.5-5.8-6.7-6.9c-0.9-0.3-1.8-0.5-2.7-0.5c-3.1-0.2-6.3,0.4-9.3,1.1
	c-0.9,0.2-1.7,0.4-2.6,0.6c-0.1,0-1.3,0.5-1.3,0.4c-1.8-2.2-4.3-3.5-7.6-3.8c-1.6-0.2-3.3-0.1-4.6,1c-0.8,0.8-1.1,1.9-0.7,3
	c0.4,1.2,2.5,2.3,3.3,0.8c0.1-0.3,0.1-0.8,0.2-1.1c0.1-0.4,0.2-0.7,0.5-1c0.4-0.6,1.1-0.6,1.8-0.6c1.9,0.1,3.5,0.9,5,2.5
	c0,0-1.3,0.5-2.2,0.9c-7.9,3.2-13.2,7.3-24.7,5c-3.1-0.6-6-1.5-8.7-3.2c-2-1.3-8.6-6.5-9.7-9.6c-0.4-1.1-1-0.4-1.2,0.7
	c-0.2,0.9,0,1.9,0.1,3.1c-2.9-1.5-5.9-1.6-9.1-1.1c-3.2,0.5-6.5,1.4-9.3,3.3c-1.6,1-3,2.4-4.2,3.9c-0.2,0.2-0.3,0.3-0.4,0.6
	c0.6,0.4,3.8-1.2,4.5-1.4c1.8-0.5,3.7-0.8,5.6-0.8c3.8-0.1,7.5,0.5,11.2,1.4c2,0.5,4,1.2,6,1.9c2.6,0.9,5.1,1.9,7.7,2.8
	c1,0.3,2,0.7,3,1H12.3v0.4l148.8,3.9c0.1,0,0.3-0.1,0.3-0.2c0.1-0.1,0-0.3,0-0.4l-2.8-3.5c-0.1-0.1-0.2-0.2-0.4-0.2h-19.4
	c6.1-2,10.1-5.3,15.3-6.5c1.5,1.9,7.2,9.5,8.8,11c2.7,2.5,6.8,4.2,10.5,2.4c0.6-0.3,1.1-0.7,1.6-1.2
	C177.6,25.3,178.6,22.1,177.5,18.7z M173.7,22.1c-0.1,0.7-0.2,1.5-0.5,2.2c-0.2,0.4-0.4,0.7-0.6,1c-1.5,1.8-3.9,1.9-5.9,1.2
	c-3.6-1.2-8.9-9.4-10.4-11.5c1.9-0.6,3.9-1.1,5.9-1.4c0.9-0.1,1.9-0.2,2.8-0.2c2.2,0,5,0,6.6,1.7C173.1,17,173.9,19.7,173.7,22.1z
	 M162.5,22.4c0,0,2.3,2.5,3.7,3c1.6,0.6,3.7,0.5,4.9-1c0.2-0.3,0.4-0.5,0.5-0.8c0.2-0.4,0.3-0.8,0.4-1.2H162.5z M1,21.4
	c-0.5,0-1,0.4-1,1c0,0.5,0.4,1,1,1c0.6,0,1-0.4,1-1C2,21.9,1.5,21.4,1,21.4z M4.4,20.7c-1,0-1.7,0.8-1.7,1.7c0,0.9,0.8,1.7,1.7,1.7
	c0.9,0,1.7-0.8,1.7-1.7C6.1,21.5,5.3,20.7,4.4,20.7z M9.2,20c-1.4,0-2.4,1.1-2.4,2.4s1.1,2.4,2.4,2.4c1.3,0,2.4-1.1,2.4-2.4
	S10.6,20,9.2,20z M178.4,0c3.1,0,5.6,2.5,5.6,5.6c0,3.1-2.5,5.6-5.6,5.6c-3.1,0-5.6-2.5-5.6-5.6C172.8,2.5,175.3,0,178.4,0z
	 M175.8,5.6c0,1.4,1.2,2.6,2.6,2.6c1.4,0,2.6-1.2,2.6-2.6c0-1.4-1.2-2.6-2.6-2.6C177,3,175.8,4.2,175.8,5.6z M181.9,28.1
	c0.4,0.5,1,0.9,1.6,1.2c3.6,1.9,7.8,0.1,10.5-2.4c1.6-1.5,7.3-9,8.8-11c5.2,1.2,9.2,4.5,15.3,6.5h-19.4c-0.2,0-0.3,0.1-0.4,0.2
	l-2.8,3.5c-0.1,0.1-0.1,0.3,0,0.4c0.1,0.1,0.2,0.2,0.3,0.2l148.8-3.9v-0.4H235.4c1-0.3,2-0.6,3-1c2.6-0.9,5.1-1.9,7.7-2.8
	c2-0.7,4-1.3,6-1.9c3.7-0.9,7.4-1.5,11.2-1.4c1.9,0,3.8,0.3,5.6,0.8c0.7,0.2,3.9,1.8,4.5,1.4c-0.1-0.3-0.3-0.4-0.4-0.6
	c-1.1-1.5-2.6-2.9-4.2-3.9c-2.8-1.8-6.1-2.7-9.3-3.3c-3.2-0.5-6.2-0.4-9.1,1.1c0.1-1.2,0.3-2.3,0.1-3.1c-0.2-1.1-0.8-1.8-1.2-0.7
	c-1.1,3.2-7.7,8.3-9.7,9.6c-2.7,1.8-5.5,2.6-8.7,3.2c-11.6,2.3-16.8-1.8-24.7-5c-0.9-0.4-2.2-0.9-2.2-0.9c1.5-1.6,3.1-2.4,5-2.5
	c0.7,0,1.4,0,1.8,0.6c0.2,0.3,0.4,0.6,0.4,1c0.1,0.3,0,0.8,0.2,1.1c0.8,1.6,2.8,0.4,3.3-0.8c0.4-1,0.1-2.2-0.7-3
	c-1.2-1.1-3-1.2-4.6-1c-3.3,0.3-5.8,1.6-7.6,3.8c0,0-1.2-0.4-1.3-0.4c-0.8-0.2-1.7-0.4-2.6-0.6c-3-0.7-6.2-1.3-9.3-1.1
	c-0.9,0-1.9,0.2-2.7,0.5c-3.2,1-5.7,3.7-6.7,6.8c0,0,0,0,0,0.1C178.2,22.1,179.2,25.3,181.9,28.1z M185.4,15.2
	c1.7-1.7,4.4-1.8,6.6-1.7c0.9,0,1.9,0.1,2.8,0.2c2,0.3,4,0.8,5.9,1.4c-1.5,2-6.8,10.3-10.4,11.5c-2,0.6-4.5,0.5-5.9-1.2
	c-0.3-0.3-0.5-0.7-0.6-1c-0.3-0.7-0.5-1.5-0.6-2.2C182.9,19.7,183.7,17,185.4,15.2z M185.1,22.4c-0.1,0-0.2,0-0.2,0.1
	c0,0.1-0.1,0.2,0,0.2c0.1,0.3,0.2,0.6,0.3,0.9c0.1,0.3,0.3,0.6,0.5,0.8c1.2,1.5,3.2,1.6,4.9,1c1.1-0.4,2.5-1.8,3.3-2.6
	c0.1-0.1,0.1-0.2,0.1-0.3c0-0.1-0.1-0.2-0.3-0.2H185.1z M354.9,22.4c0,0.5,0.4,1,1,1c0.6,0,1-0.4,1-1c0-0.5-0.4-1-1-1
	C355.3,21.4,354.9,21.9,354.9,22.4z M350.7,22.4c0,0.9,0.8,1.7,1.7,1.7c1,0,1.7-0.8,1.7-1.7c0-0.9-0.8-1.7-1.7-1.7
	C351.5,20.7,350.7,21.5,350.7,22.4z M345.1,22.4c0,1.3,1.1,2.4,2.5,2.4c1.3,0,2.4-1.1,2.4-2.4s-1.1-2.4-2.4-2.4
	C346.2,20,345.1,21.1,345.1,22.4z"/>
</svg>
