<?xml version="1.0" encoding="UTF-8"?><svg id="_イヤー_2" xmlns="http://www.w3.org/2000/svg" viewBox="0 0 5669.29 1133.86"><defs><style>.cls-1{fill:none;}.cls-2{fill:#f39800;}.cls-3{fill:#00a0e9;}.cls-4{fill:#b5b6b6;}.cls-5{fill:#076fb8;}.cls-6{fill:#0969ac;}.cls-7{fill:#89898a;}</style></defs><g id="_イヤー_1-2"><g><path class="cls-1" d="M3878.12,805.92c81.43,0,128.71-48.5,143.42-129.54l-231.91,.6v128.94h88.49Z"/><path class="cls-1" d="M2849.73,608.72c-35.21,0-67.56,23.05-74.22,66.59h137.01c-.95-43.54-20.93-66.59-62.8-66.59Z"/><path class="cls-1" d="M2410.9,834.09c25.69,0,51.38-15.37,66.6-37.13v-113.97c-.41-.79-.89-1.56-1.35-2.34l-122.56,.32c-8.42,16.03-13.1,35.82-13.1,57.09,0,60.19,32.35,96.04,70.41,96.04Z"/><path class="cls-1" d="M1891.42,834.09c43.77,0,74.22-42.26,74.22-96.04,0-21.09-4.74-40.35-13.07-56.04l-122.47,.32c-8.22,15.63-12.89,34.78-12.89,55.73,0,53.78,30.45,96.04,74.21,96.04Z"/><path class="cls-1" d="M2411.86,642.01c-25.48,0-45.89,15.41-58.26,38.95l122.56-.32c-12.17-20.79-39.54-38.64-64.3-38.64Z"/><path class="cls-1" d="M1891.42,642.01c-26.72,0-48.43,15.8-61.32,40.31l122.47-.32c-12.91-24.32-34.54-39.99-61.15-39.99Z"/><g><polygon class="cls-4" points="193.53 722.23 410.89 536.83 409.97 368.47 370.17 368.78 0 687.04 .28 739.18 205.73 737.01 193.56 726.82 193.53 722.23"/><polygon class="cls-7" points=".41 763.56 374.01 1077.43 413.81 1077.11 412.91 910.28 205.73 737.01 .28 739.18 .41 763.56"/></g><g><path class="cls-3" d="M842.71,341.85c82.93,0,135.49,62.61,151.84,160.77,3.5,18.61,9.34,27.07,19.86,27.07h171.7c12.85,0,19.86-13.54,19.86-27.07,0-220-141.33-418.01-363.26-418.01s-383.11,223.39-383.11,524.62c0,30.96,1.8,60.96,5.11,89.98l213.64-.59c-5.49-27.18-8.51-57.04-8.51-89.39,0-169.24,80.6-267.39,172.87-267.39Z"/><path class="cls-6" d="M842.71,1133.86c233.6,0,363.26-204.77,363.26-409.54,0-16.92-11.68-23.69-21.02-23.69h-167.03c-12.85,0-19.86,6.77-23.36,27.08-18.69,93.08-71.25,148.92-151.84,148.92-76.16,0-141.69-65.83-164.36-178l-213.64,.59c29.44,258.17,184.8,434.64,378,434.64Z"/></g><g><path class="cls-3" d="M1544.52,406.16c-137.25,0-257.76,103.35-282.58,290.78l207.3-.58c15.83-32.39,42.48-53.28,75.28-53.28s59.21,20.71,75.06,52.86l207.31-.58c-25.29-186.44-145.51-289.2-282.37-289.2Z"/><path class="cls-5" d="M1635.62,770.01c0,71.08-37.38,126.92-91.11,126.92s-91.1-55.85-91.1-126.92c0-27.68,5.73-52.98,15.82-73.65l-207.3,.58c-3.06,23.11-4.75,47.43-4.75,73.07,0,233.54,133.15,363.85,287.33,363.85s287.34-130.31,287.34-363.85c0-26.22-1.76-51.07-4.96-74.64l-207.31,.58c10.23,20.74,16.04,46.19,16.04,74.07Z"/></g><g><path class="cls-3" d="M2427.11,0h-156.51c-7.01,0-19.86,18.61-19.86,28.77V446.78h-4.67c-22.19-23.69-70.08-40.61-113.3-40.61-127.64,0-220.46,121.59-241.79,288.99l207.65-.58c15.18-31.11,40.25-51.48,71.52-51.48s63.99,23.59,78.93,51.06l197.89-.55V28.77c0-10.15-12.85-28.77-19.86-28.77Z"/><path class="cls-5" d="M2250.74,697.24v150.62c-18.69,28.77-50.23,49.07-81.76,49.07-46.72,0-86.43-47.38-86.43-126.92,0-28.1,5.75-54.26,16.08-75.44l-207.65,.58c-3.07,24.08-4.66,49.11-4.66,74.86,0,218.31,109.79,363.85,238.28,363.85,65.41,0,113.3-33.84,148.34-79.54h2.34l12.85,35.53c5.84,16.93,14.02,27.08,23.36,27.08h115.63c7.01,0,19.86-18.61,19.86-28.77v-394.58l-197.89,.55c.56,1.03,1.15,2.05,1.66,3.09Z"/></g><g><path class="cls-3" d="M2793.72,406.16c-153.02,0-257.62,124.85-282.66,287.2l556.98-1.56c-12.02-157.42-107.56-285.65-274.33-285.65Zm-88.77,280.93c8.18-57.54,47.89-88,91.11-88,51.4,0,75.92,30.46,77.09,88h-168.2Z"/><path class="cls-5" d="M2505.21,770.01c0,220,127.32,363.85,310.69,363.85,84.1,0,161.19-33.84,209.08-69.38,16.35-11.85,21.03-27.08,21.03-40.61,0-6.77-2.34-20.31-5.84-38.93l-16.35-84.62c-3.51-16.92-12.85-28.77-28.03-28.77-9.35,0-18.69,3.38-31.54,8.46-31.54,13.54-91.1,37.23-148.34,37.23-65.41,0-105.12-22-112.13-77.84h356.25s9.34-55.85,9.34-113.39c0-11.53-.47-22.93-1.33-34.2l-556.98,1.56c-3.82,24.79-5.85,50.42-5.85,76.64Z"/></g><g><polygon class="cls-7" points="3100.33 910.44 3100.33 1077.28 3140.13 1077.28 3512.02 760.45 3512.02 726.62 3316.46 727.13 3100.33 910.44"/><polygon class="cls-4" points="3140.13 368.62 3100.33 368.62 3100.33 536.98 3318.68 720.65 3318.68 725.24 3316.46 727.13 3512.02 726.62 3512.02 683.92 3140.13 368.62"/></g><g><path class="cls-5" d="M3874.03,859.7h-108.63v-170.4l-210.25,.59v406.74c0,10.15,7.01,20.31,14.01,20.31h306.03c230.94,0,365.83-168.64,387.99-429.03l-213.09,.6c-18.05,107.1-76.1,171.2-176.06,171.2Z"/><path class="cls-3" d="M3872.86,101.54h-303.69c-7,0-14.01,10.15-14.01,20.31V689.89l210.25-.59V358.77h107.46c108.62,0,183.38,91.39,183.38,250.47,0,28.48-2.05,54.97-6.15,79.27l213.09-.6c2.16-25.39,3.3-51.61,3.3-78.67,0-309.7-163.52-507.7-393.63-507.7Z"/></g><g><path class="cls-2" d="M4446.69,336.77c70.08,0,109.79-59.23,109.79-126.92s-39.71-125.24-109.79-125.24-109.79,57.54-109.79,125.24,39.71,126.92,109.79,126.92Z"/><path class="cls-5" d="M4348.57,1088.17c0,10.15,12.85,28.77,19.86,28.77h156.51c7.01,0,19.86-18.61,19.86-28.77v-401.03l-196.23,.55v400.48Z"/><path class="cls-3" d="M4524.94,423.08h-156.51c-7.01,0-19.86,18.61-19.86,28.77v235.84l196.23-.55v-235.29c0-10.15-12.85-28.77-19.86-28.77Z"/></g><g><path class="cls-1" d="M4911.54,636.31c-32.02,0-56.87,19.6-72.03,50.02l137.17-.38c-11.22-25.08-31.69-49.64-65.13-49.64Z"/><path class="cls-3" d="M4911.54,406.16c-131.19,0-251.57,104.27-279.1,280.75l207.06-.58c15.16-30.42,40.01-50.02,72.03-50.02s53.91,24.55,65.13,49.64l202.32-.57c-.07-5.77-.3-14.72-1.14-21.99-12.84-132-102.79-257.23-266.31-257.23Z"/><path class="cls-5" d="M4626.54,764.93c0,220,129.66,368.93,290.84,368.93,92.27,0,164.7-37.23,220.76-98.15,28.03-30.47,37.38-47.39,37.38-71.08,0-13.54-3.51-23.69-7.01-32.15l-42.05-94.77c-7.01-16.93-16.35-28.77-30.37-28.77-10.51,0-18.69,3.39-38.55,22-39.71,37.23-81.76,66-130.82,66-60.73,0-103.95-57.54-103.95-132,0-29.62,5.9-56.87,16.73-78.6l-207.06,.58c-3.84,24.63-5.9,50.66-5.9,78.02Z"/><path class="cls-3" d="M4979.28,692.16l5.84,15.23c4.67,11.85,12.85,20.31,22.19,20.31h146c12.85,0,25.7-18.61,25.7-37.23,0-.96,0-2.8-.03-5.09l-202.32,.57c.93,2.07,1.81,4.15,2.61,6.21Z"/></g><g><path class="cls-3" d="M5499.93,660.01h134.32c7.01,0,16.35-13.54,16.35-23.69v-189.54c0-10.15-9.35-23.69-16.35-23.69h-134.32v-157.38c0-10.15-12.85-28.77-19.86-28.77h-156.52c-7,0-19.85,18.62-19.85,28.77v157.38h-47.89c-7.01,0-16.35,13.54-16.35,23.69v189.54c0,10.15,9.34,23.69,16.35,23.69h47.89v25.07l196.23-.55v-24.52Z"/><path class="cls-5" d="M5648.26,891.86c-2.34-15.23-18.69-23.69-31.54-15.23-17.52,11.85-38.55,23.69-60.74,23.69-35.04,0-56.06-30.46-56.06-88v-127.79l-196.23,.55v166.17c0,187.84,81.76,282.61,204.4,282.61,70.08,0,119.14-27.07,146.01-50.77,10.51-8.46,15.18-22,15.18-33.85,0-6.77,0-11.85-2.34-28.77l-18.69-128.62Z"/></g></g></g></svg>