<svg width="650" height="350" viewBox="0 0 650 350" fill="none" xmlns="http://www.w3.org/2000/svg">
<g clip-path="url(#clip0_1_21)">
<path d="M95.741 97.318V93.349C95.741 92.2881 95.3195 91.2707 94.5694 90.5206C93.8193 89.7704 92.8018 89.349 91.741 89.349H84.091V85.796V85.671C84.078 81.371 85.05 78.798 85.925 77.862L85.967 77.811C86.5632 77.2235 87.3122 76.8151 88.129 76.632C90.9546 76.1771 93.813 75.9553 96.675 75.969H96.853H98.146C99.2068 75.969 100.224 75.5476 100.974 74.7974C101.725 74.0473 102.146 73.0299 102.146 71.969V68.384C102.148 67.4555 101.826 66.5554 101.236 65.8386C100.645 65.1219 99.8236 64.6333 98.912 64.457C98.427 64.363 97.888 64.268 97.286 64.175C96.531 64.058 92.567 64.002 91.786 64.001H94.974H94.958H91.731C85.288 64.001 79.802 65.501 76.131 69.447L76.125 69.453C72.536 73.407 71.244 78.999 71.225 85.795V160.695C71.225 161.756 71.6464 162.773 72.3965 163.523C73.1467 164.274 74.1641 164.695 75.225 164.695H80.09C81.1508 164.695 82.1683 164.274 82.9184 163.523C83.6685 162.773 84.09 161.756 84.09 160.695V101.317H91.741C92.8018 101.317 93.8193 100.896 94.5694 100.145C95.3195 99.3953 95.741 98.3779 95.741 97.317" fill="#272827"/>
<path d="M418.551 107.557C419.583 110.475 420.082 113.555 420.025 116.65V160.688C420.025 161.749 420.446 162.766 421.197 163.516C421.947 164.267 422.964 164.688 424.025 164.688H428.762C429.823 164.688 430.84 164.267 431.59 163.516C432.341 162.766 432.762 161.749 432.762 160.688V115.496C432.882 110.637 432.008 105.805 430.194 101.296C428.511 97.2584 425.625 93.8368 421.93 91.496C417.975 89.1333 413.429 87.944 408.824 88.067H408.794H408.744C403.836 88.0253 399.019 89.3968 394.869 92.018C392.136 93.7774 389.752 96.0272 387.837 98.654C386.174 95.7662 383.847 93.317 381.047 91.51C377.156 89.1442 372.667 87.9486 368.115 88.066H368.08H368.027C363.162 88.036 358.391 89.4076 354.285 92.017C353.053 92.8168 351.896 93.7248 350.825 94.73V93.347C350.825 92.2861 350.404 91.2687 349.653 90.5185C348.903 89.7684 347.886 89.347 346.825 89.347H342.09C341.029 89.347 340.012 89.7684 339.262 90.5185C338.511 91.2687 338.09 92.2861 338.09 93.347V160.687C338.09 161.748 338.511 162.765 339.262 163.515C340.012 164.266 341.029 164.687 342.09 164.687H346.827C347.888 164.687 348.905 164.266 349.655 163.515C350.406 162.765 350.827 161.748 350.827 160.687V119.849C350.849 117.503 351.237 115.175 351.979 112.949C352.735 110.606 353.872 108.405 355.346 106.433C356.706 104.581 358.433 103.028 360.419 101.871C362.366 100.783 364.571 100.239 366.801 100.298C370.054 100.306 372.196 101.023 373.69 102.13C375.494 103.519 376.848 105.409 377.584 107.563C378.616 110.48 379.116 113.56 379.058 116.654V160.692C379.058 161.753 379.479 162.77 380.23 163.52C380.98 164.271 381.997 164.692 383.058 164.692H387.795C388.856 164.692 389.873 164.271 390.623 163.52C391.374 162.77 391.795 161.753 391.795 160.692V119.849C391.814 117.503 392.203 115.174 392.946 112.949C393.701 110.605 394.84 108.401 396.315 106.429C397.674 104.576 399.4 103.023 401.386 101.867C403.334 100.779 405.539 100.236 407.77 100.294C411.025 100.302 413.17 101.019 414.656 102.126C416.463 103.512 417.82 105.402 418.556 107.557" fill="#272827"/>
<path d="M278.959 161.138C284.334 164.371 290.519 166.004 296.789 165.846H296.866C303.019 165.982 309.089 164.406 314.399 161.296C319.572 158.078 323.629 153.346 326.019 147.742C328.661 141.874 329.89 134.942 329.892 127.025C330.052 120.048 328.76 113.113 326.099 106.661C323.754 101.027 319.777 96.2236 314.678 92.87C309.334 89.5761 303.147 87.9083 296.872 88.07H296.79C290.608 87.9409 284.512 89.541 279.19 92.69C274.015 95.907 269.958 100.643 267.575 106.251C264.975 112.095 263.775 119.073 263.775 127.151C263.624 134.071 264.89 140.948 267.494 147.361C269.802 153.026 273.807 157.839 278.959 161.138ZM282.044 106.72C283.655 104.649 285.75 103.005 288.144 101.932C290.895 100.796 293.851 100.24 296.827 100.298C299.734 100.243 302.619 100.809 305.289 101.959C307.695 103.086 309.792 104.778 311.404 106.89C314.904 111.368 316.891 117.934 316.896 127.022V127.035C316.896 136.403 314.913 143.054 311.538 147.346C309.947 149.411 307.87 151.05 305.492 152.118C302.748 153.253 299.799 153.809 296.83 153.75C290.141 153.673 285.774 151.601 282.175 147.142C278.637 142.655 276.638 136.142 276.633 127.151V127.132C276.633 117.685 278.638 111.003 282.042 106.72" fill="#272827"/>
<path d="M208.529 160.69V119.85C208.552 117.53 208.973 115.232 209.774 113.055C210.613 110.697 211.857 108.504 213.451 106.574C215.015 104.658 216.961 103.088 219.164 101.965C221.497 100.809 224.076 100.236 226.679 100.296C230.508 100.296 233.218 101.074 235.058 102.274C237.066 103.575 238.619 105.471 239.499 107.696C240.625 110.545 241.174 113.59 241.112 116.653V160.693C241.112 161.754 241.533 162.771 242.284 163.521C243.034 164.272 244.051 164.693 245.112 164.693H249.977C250.503 164.694 251.023 164.591 251.509 164.39C251.994 164.189 252.436 163.895 252.807 163.523C253.179 163.152 253.473 162.71 253.674 162.225C253.875 161.739 253.978 161.219 253.977 160.693V115.501C254.107 110.542 253.09 105.62 251.004 101.119C249.04 97.0584 245.902 93.6814 241.996 91.426C237.701 89.0881 232.864 87.9308 227.976 88.072H227.912C222.729 88.0225 217.631 89.3904 213.169 92.028C211.506 93.0162 209.95 94.1752 208.527 95.486V68.516C208.527 67.4551 208.106 66.4377 207.355 65.6876C206.605 64.9374 205.588 64.516 204.527 64.516H199.793C198.732 64.516 197.715 64.9374 196.965 65.6876C196.214 66.4377 195.793 67.4551 195.793 68.516V160.693C195.793 161.754 196.214 162.771 196.965 163.521C197.715 164.272 198.732 164.693 199.793 164.693H204.53C205.591 164.693 206.608 164.272 207.358 163.521C208.109 162.771 208.53 161.754 208.53 160.693" fill="#272827"/>
<path d="M183.395 165.201H183.405C184.173 165.201 184.922 165.177 185.653 165.129C186.614 165.078 187.561 164.879 188.46 164.538C189.206 164.243 189.847 163.731 190.298 163.067C190.749 162.403 190.99 161.619 190.99 160.817V157.232C190.99 156.171 190.569 155.154 189.818 154.404C189.068 153.653 188.051 153.232 186.99 153.232H185.112C183.278 153.273 181.447 153.048 179.677 152.563C178.859 152.384 178.107 151.98 177.507 151.396L177.461 151.342C176.586 150.403 175.613 147.828 175.627 143.531V101.317H183.922C184.983 101.317 186 100.896 186.75 100.145C187.501 99.3953 187.922 98.3779 187.922 97.317V93.348C187.922 92.2871 187.501 91.2697 186.75 90.5196C186 89.7694 184.983 89.348 183.922 89.348H175.622V77.731C175.622 76.6701 175.201 75.6527 174.45 74.9026C173.7 74.1524 172.683 73.731 171.622 73.731H166.763C165.702 73.731 164.685 74.1524 163.935 74.9026C163.184 75.6527 162.763 76.6701 162.763 77.731V143.407C162.776 150.131 164.086 155.697 167.639 159.664C171.321 163.673 176.865 165.196 183.389 165.195" fill="#272827"/>
<path d="M590.059 176.941C589.689 176.42 589.2 175.995 588.633 175.702C588.066 175.409 587.437 175.256 586.798 175.256H581.935C581.105 175.256 580.295 175.514 579.618 175.995C578.941 176.476 578.43 177.156 578.157 177.94L547.814 264.994C547.604 265.597 547.541 266.242 547.63 266.874C547.72 267.506 547.96 268.108 548.33 268.629C548.7 269.149 549.189 269.574 549.756 269.867C550.324 270.159 550.953 270.312 551.592 270.312H556.457C557.287 270.312 558.096 270.054 558.773 269.573C559.45 269.093 559.96 268.414 560.234 267.63L590.576 180.569C590.786 179.966 590.848 179.322 590.759 178.69C590.669 178.058 590.43 177.457 590.061 176.936" fill="#7476EB"/>
<path d="M547.654 247.765V247.744C547.654 243.217 546.754 239.192 544.497 235.971C542.445 233.051 539.593 230.787 536.284 229.45C533.156 228.182 529.892 227.281 526.557 226.765C523.3 226.246 520.025 225.791 516.73 225.4C513.95 225.091 511.203 224.539 508.519 223.75C506.743 223.281 505.138 222.313 503.894 220.962C503.094 220.062 502.478 218.59 502.463 215.873C502.441 214.475 502.705 213.087 503.239 211.795C503.783 210.606 504.581 209.55 505.577 208.702C507.563 206.961 510.853 205.785 516.003 205.781C520.858 205.805 524.339 207.024 527.141 209.338C529.695 211.45 531.718 215.275 532.659 221.457C532.801 222.403 533.279 223.266 534.004 223.89C534.729 224.514 535.654 224.856 536.61 224.856H541.348C541.91 224.856 542.466 224.737 542.979 224.508C543.492 224.278 543.952 223.943 544.327 223.525C544.702 223.106 544.984 222.613 545.156 222.078C545.328 221.542 545.385 220.977 545.323 220.418C544.89 215.092 543.169 209.951 540.309 205.438C537.755 201.559 534.176 198.462 529.97 196.492C525.619 194.562 520.898 193.606 516.139 193.692H516.11C511.198 193.549 506.323 194.578 501.887 196.692C498.239 198.437 495.166 201.19 493.034 204.626C490.901 208.062 489.798 212.037 489.854 216.081V216.156C489.854 220.597 490.768 224.569 493.034 227.741C495.102 230.626 497.968 232.843 501.279 234.121C504.398 235.34 507.643 236.212 510.953 236.721C514.206 237.241 517.458 237.696 520.708 238.086C523.416 238.389 526.085 238.971 528.673 239.824C530.471 240.377 532.09 241.399 533.363 242.785C534.131 243.652 534.778 245.185 534.789 248C534.812 249.598 534.506 251.184 533.889 252.658C533.252 254.042 532.321 255.27 531.162 256.258C528.84 258.297 525.034 259.622 519.201 259.625C513.552 259.606 509.42 258.21 506.165 255.589C502.948 252.957 500.846 249.289 499.837 243.836C499.67 242.914 499.184 242.079 498.465 241.478C497.745 240.878 496.837 240.549 495.9 240.549H491.163C490.102 240.549 489.085 240.97 488.335 241.721C487.584 242.471 487.163 243.488 487.163 244.549C487.163 244.771 487.181 244.993 487.219 245.212C488.594 253.498 492.119 260.295 497.903 264.841C503.563 269.32 510.776 271.463 519.003 271.46H519.115C523.968 271.539 528.788 270.651 533.294 268.848C537.442 267.178 541.043 264.385 543.694 260.784C546.364 256.995 547.751 252.451 547.653 247.817L547.654 247.765Z" fill="#272827"/>
<path d="M479.771 240.287H475.034C474.129 240.286 473.251 240.593 472.542 241.156C471.834 241.719 471.338 242.505 471.134 243.387C469.809 249.095 467.519 252.91 464.392 255.442C461.166 258.022 457.336 259.334 452.249 259.358C445.549 259.283 441.173 257.218 437.582 252.803C434.06 248.373 432.053 241.846 432.05 232.761V232.74C432.05 223.282 434.023 216.575 437.357 212.296C438.923 210.24 440.974 208.604 443.326 207.534C446.028 206.402 448.938 205.848 451.867 205.908C456.282 205.749 460.604 207.196 464.034 209.981C467.234 212.655 469.44 216.464 470.606 222.047C470.792 222.949 471.283 223.759 471.997 224.341C472.711 224.923 473.604 225.24 474.525 225.24H479.262C479.788 225.24 480.309 225.136 480.795 224.935C481.281 224.733 481.722 224.438 482.094 224.065C482.465 223.693 482.76 223.251 482.96 222.764C483.161 222.278 483.263 221.757 483.262 221.231C483.262 221.01 483.243 220.79 483.206 220.572C482.428 215.392 480.49 210.455 477.536 206.129C474.746 202.146 470.981 198.947 466.601 196.836C462 194.684 456.97 193.607 451.891 193.687H451.81C445.698 193.558 439.674 195.166 434.44 198.325C429.338 201.575 425.344 206.298 422.985 211.868C420.385 217.714 419.185 224.691 419.185 232.768C419.029 239.671 420.296 246.532 422.907 252.924C425.237 258.563 429.228 263.359 434.349 266.675C439.671 269.943 445.823 271.605 452.067 271.46H452.193C459.387 271.618 466.434 269.404 472.245 265.16C478.145 260.75 481.86 253.828 483.684 245.113C483.741 244.844 483.769 244.569 483.769 244.294C483.77 243.768 483.667 243.247 483.466 242.761C483.266 242.275 482.971 241.834 482.6 241.462C482.228 241.09 481.787 240.794 481.301 240.593C480.815 240.392 480.295 240.288 479.769 240.288" fill="#272827"/>
<path d="M405.394 186.965H400.659C399.598 186.965 398.581 187.386 397.831 188.137C397.08 188.887 396.659 189.904 396.659 190.965V194.911C396.659 195.972 397.08 196.989 397.831 197.739C398.581 198.49 399.598 198.911 400.659 198.911H405.396C406.457 198.911 407.474 198.49 408.224 197.739C408.975 196.989 409.396 195.972 409.396 194.911V190.965C409.396 189.904 408.975 188.887 408.224 188.137C407.474 187.386 406.457 186.965 405.396 186.965" fill="#272827"/>
<path d="M405.394 202.968H400.659C399.598 202.968 398.581 203.389 397.831 204.14C397.08 204.89 396.659 205.907 396.659 206.968V266.308C396.659 267.369 397.08 268.386 397.831 269.136C398.581 269.887 399.598 270.308 400.659 270.308H405.396C405.922 270.309 406.442 270.206 406.928 270.005C407.413 269.804 407.855 269.51 408.226 269.138C408.598 268.767 408.892 268.325 409.093 267.84C409.294 267.354 409.397 266.834 409.396 266.308V206.969C409.396 205.908 408.975 204.891 408.224 204.141C407.474 203.39 406.457 202.969 405.396 202.969" fill="#272827"/>
<path d="M387.855 258.85H385.976C384.141 258.892 382.31 258.667 380.54 258.183C379.723 258.003 378.972 257.599 378.372 257.016L378.327 256.96C377.45 256.021 376.479 253.444 376.491 249.144V206.936H384.782C385.843 206.936 386.86 206.515 387.61 205.764C388.361 205.014 388.782 203.997 388.782 202.936V198.966C388.782 197.905 388.361 196.888 387.61 196.138C386.86 195.387 385.843 194.966 384.782 194.966H376.491V183.348C376.491 182.287 376.07 181.27 375.319 180.52C374.569 179.769 373.552 179.348 372.491 179.348H367.626C366.565 179.348 365.548 179.769 364.798 180.52C364.047 181.27 363.626 182.287 363.626 183.348V249.024C363.639 255.747 364.949 261.314 368.502 265.28L368.508 265.286C372.192 269.298 377.734 270.821 384.269 270.818H384.335C385.081 270.818 385.807 270.792 386.515 270.746C387.477 270.695 388.426 270.494 389.327 270.152C390.071 269.856 390.709 269.344 391.159 268.681C391.609 268.018 391.849 267.236 391.849 266.435V262.85C391.849 261.789 391.428 260.772 390.677 260.022C389.927 259.271 388.91 258.85 387.849 258.85" fill="#272827"/>
<path d="M357.132 194.967H352.141C351.34 194.966 350.558 195.206 349.895 195.655C349.232 196.104 348.719 196.743 348.424 197.487L328.073 248.624L307.197 197.455C306.898 196.719 306.386 196.09 305.726 195.647C305.067 195.203 304.291 194.967 303.497 194.967H298.241C297.583 194.966 296.935 195.128 296.355 195.438C295.774 195.747 295.279 196.196 294.913 196.742C294.547 197.289 294.322 197.918 294.257 198.573C294.192 199.227 294.29 199.888 294.541 200.496L321.186 264.916L318.597 271.341C316.917 275.541 315.46 278.795 314.286 281.021C313.523 282.611 312.53 284.079 311.34 285.38C310.785 285.956 310.07 286.353 309.287 286.518C307.722 286.791 306.134 286.915 304.545 286.888H302.341C301.28 286.888 300.263 287.309 299.513 288.06C298.762 288.81 298.341 289.827 298.341 290.888V294.729C298.341 295.655 298.663 296.553 299.251 297.269C299.839 297.984 300.657 298.474 301.566 298.653C302.107 298.759 302.712 298.853 303.41 298.953C304.203 299.06 305.001 299.114 305.801 299.116C308.437 299.164 311.07 298.886 313.638 298.289C316.155 297.647 318.451 296.334 320.279 294.489C322.216 292.432 323.837 290.1 325.089 287.568C326.54 284.79 328.118 281.301 329.858 277.043L360.841 200.469C361.087 199.862 361.179 199.204 361.111 198.552C361.043 197.901 360.816 197.276 360.45 196.733C360.083 196.19 359.59 195.745 359.011 195.437C358.433 195.13 357.788 194.969 357.133 194.969" fill="#272827"/>
<path d="M285.439 170.13H280.702C279.641 170.13 278.624 170.551 277.874 171.302C277.123 172.052 276.702 173.069 276.702 174.13V266.307C276.702 267.368 277.123 268.385 277.874 269.135C278.624 269.886 279.641 270.307 280.702 270.307H285.439C286.5 270.307 287.517 269.886 288.267 269.135C289.018 268.385 289.439 267.368 289.439 266.307V174.131C289.439 173.07 289.018 172.053 288.267 171.303C287.517 170.552 286.5 170.131 285.439 170.131" fill="#272827"/>
<path d="M170.093 205.911C173.921 205.911 176.629 206.689 178.469 207.887C180.479 209.188 182.033 211.084 182.915 213.31C184.042 216.159 184.59 219.205 184.527 222.268V266.306C184.527 267.367 184.948 268.384 185.699 269.134C186.449 269.885 187.466 270.306 188.527 270.306H193.392C194.453 270.306 195.47 269.885 196.22 269.134C196.971 268.384 197.392 267.367 197.392 266.306V221.115C197.521 216.156 196.503 211.234 194.419 206.733C192.455 202.672 189.316 199.294 185.409 197.038C181.116 194.702 176.281 193.545 171.396 193.686H171.324C166.162 193.635 161.081 194.974 156.614 197.562C154.938 198.539 153.372 199.694 151.943 201.007V198.967C151.943 197.906 151.522 196.889 150.771 196.139C150.021 195.388 149.004 194.967 147.943 194.967H143.207C142.146 194.967 141.129 195.388 140.379 196.139C139.628 196.889 139.207 197.906 139.207 198.967V266.307C139.207 267.368 139.628 268.385 140.379 269.135C141.129 269.886 142.146 270.307 143.207 270.307H147.944C149.005 270.307 150.022 269.886 150.772 269.135C151.523 268.385 151.944 267.368 151.944 266.307V225.469C151.967 223.148 152.389 220.848 153.189 218.669C154.027 216.31 155.272 214.116 156.866 212.186C158.43 210.27 160.376 208.7 162.579 207.577C164.912 206.422 167.491 205.849 170.094 205.908" fill="#272827"/>
<path d="M79.9 269.015C84.2227 270.779 88.8626 271.633 93.53 271.524C97.1199 271.481 100.675 270.816 104.038 269.559C107.82 268.167 111.319 266.103 114.365 263.465C114.965 262.953 115.532 262.406 116.082 261.844C116.438 264.178 117.23 266.424 118.415 268.466C118.772 269.049 119.273 269.531 119.87 269.864C120.467 270.197 121.14 270.37 121.824 270.366H121.832L124.173 270.339C125.226 270.327 126.232 269.9 126.972 269.151C127.712 268.402 128.127 267.392 128.127 266.339V223.48C128.245 218.226 127.257 213.005 125.227 208.157C123.277 203.667 119.95 199.913 115.727 197.438C111.397 194.886 106.149 193.746 100.188 193.746C94.8499 193.612 89.5508 194.689 84.688 196.895C80.327 198.953 76.6576 202.233 74.126 206.337L74.108 206.366C73.7703 206.913 73.5913 207.544 73.591 208.187C73.5946 208.942 73.8322 209.677 74.2709 210.291C74.7097 210.905 75.3281 211.368 76.041 211.616L79.967 213.016C81.0584 213.402 82.2425 213.44 83.3564 213.125C84.4703 212.81 85.4592 212.157 86.187 211.257C86.5575 210.802 86.9528 210.368 87.371 209.957C89.939 207.464 93.751 205.995 99.682 205.972C102.235 205.911 104.778 206.307 107.191 207.142C108.92 207.765 110.45 208.84 111.621 210.256C113.844 212.983 115.242 217.198 115.372 223.239C109.656 223.329 104.586 223.567 100.206 223.977C94.6989 224.468 89.2677 225.599 84.022 227.346H84.004L83.958 227.36H83.95C78.787 228.968 74.524 231.46 71.525 235.051C68.4339 238.933 66.8294 243.791 67 248.75V248.88C66.9101 253.209 68.0922 257.469 70.4 261.132C72.7138 264.645 76.0209 267.389 79.9 269.015ZM112.472 248.168C110.552 251.517 107.839 254.343 104.572 256.398C101.388 258.423 97.6822 259.475 93.909 259.426C88.873 259.416 85.496 258.261 83.216 256.377C82.1423 255.506 81.2863 254.397 80.716 253.138C80.1251 251.689 79.8343 250.136 79.861 248.572C79.8324 246.733 80.2931 244.919 81.196 243.317C81.873 242.106 83.369 240.689 86.106 239.379C88.706 238.12 92.918 236.956 98.523 236.146C104.116 235.41 109.749 235.015 115.39 234.962V237.436C115.403 241.211 114.395 244.919 112.472 248.168Z" fill="#272827"/>
<path d="M253.29 197.442C248.96 194.89 243.712 193.75 237.751 193.75C232.413 193.616 227.114 194.693 222.251 196.899C217.89 198.957 214.221 202.237 211.689 206.341L211.671 206.37C211.332 206.917 211.153 207.548 211.154 208.191C211.157 208.945 211.394 209.68 211.833 210.294C212.271 210.908 212.889 211.372 213.601 211.62L217.527 213.02C218.618 213.405 219.802 213.443 220.916 213.128C222.03 212.813 223.018 212.161 223.746 211.261C224.117 210.806 224.513 210.372 224.932 209.961C227.5 207.468 231.312 205.999 237.243 205.976C239.796 205.915 242.339 206.311 244.752 207.146C246.481 207.769 248.011 208.844 249.182 210.26C251.405 212.987 252.803 217.202 252.933 223.243C247.217 223.333 242.147 223.571 237.767 223.981C232.26 224.472 226.829 225.603 221.583 227.35L221.565 227.356L221.519 227.369H221.511C216.348 228.977 212.085 231.469 209.086 235.06C205.997 238.94 204.393 243.794 204.561 248.75V248.88C204.47 253.209 205.652 257.469 207.961 261.132C210.275 264.645 213.582 267.389 217.461 269.015C221.784 270.778 226.424 271.632 231.092 271.524C234.682 271.481 238.238 270.816 241.601 269.559C245.383 268.167 248.882 266.103 251.928 263.465C252.528 262.953 253.095 262.406 253.645 261.844C254.001 264.178 254.793 266.424 255.978 268.466C256.335 269.049 256.836 269.531 257.433 269.864C258.03 270.197 258.703 270.37 259.387 270.366H259.395L261.736 270.339C262.789 270.327 263.794 269.9 264.535 269.151C265.275 268.402 265.69 267.392 265.69 266.339V223.48C265.808 218.226 264.82 213.005 262.79 208.157C260.84 203.667 257.513 199.913 253.29 197.438M250.037 248.164C248.117 251.513 245.404 254.339 242.137 256.394C238.953 258.419 235.247 259.471 231.474 259.422C226.438 259.412 223.061 258.257 220.781 256.373C219.707 255.502 218.851 254.393 218.281 253.134C217.689 251.686 217.398 250.132 217.426 248.568C217.397 246.729 217.858 244.915 218.761 243.313C219.438 242.102 220.934 240.685 223.671 239.375C226.271 238.116 230.483 236.952 236.088 236.142C241.681 235.406 247.314 235.011 252.955 234.958V237.432C252.968 241.207 251.96 244.915 250.037 248.164Z" fill="#272827"/>
<path d="M97.864 155.514C100.178 159.027 103.485 161.771 107.364 163.397C111.687 165.16 116.327 166.014 120.995 165.906C124.585 165.864 128.14 165.199 131.502 163.941C135.284 162.549 138.783 160.485 141.829 157.847C142.429 157.335 142.996 156.788 143.546 156.226C143.902 158.56 144.694 160.806 145.879 162.848C146.236 163.431 146.737 163.913 147.334 164.246C147.931 164.579 148.604 164.752 149.288 164.748H149.302L151.643 164.721C152.696 164.709 153.701 164.282 154.442 163.533C155.182 162.784 155.597 161.774 155.597 160.721V117.861C155.715 112.607 154.727 107.386 152.697 102.538C150.747 98.0482 147.42 94.2945 143.197 91.819C138.867 89.267 133.619 88.127 127.658 88.127C122.32 87.9934 117.021 89.07 112.158 91.276C107.797 93.3331 104.127 96.6135 101.596 100.718L101.578 100.747C101.239 101.294 101.06 101.925 101.06 102.568C101.064 103.323 101.302 104.058 101.741 104.672C102.181 105.286 102.799 105.749 103.512 105.997L107.438 107.397C108.035 107.609 108.665 107.718 109.299 107.719C110.134 107.717 110.958 107.529 111.712 107.169C112.466 106.81 113.13 106.287 113.657 105.639C114.028 105.184 114.424 104.75 114.843 104.339C117.411 101.846 121.223 100.377 127.154 100.354C129.707 100.293 132.25 100.689 134.663 101.524C136.392 102.147 137.922 103.222 139.093 104.638C141.302 107.361 142.702 111.583 142.829 117.624C137.113 117.714 132.043 117.952 127.663 118.362C122.156 118.853 116.725 119.984 111.479 121.731L111.461 121.737L111.415 121.75H111.407C106.244 123.358 101.981 125.85 98.982 129.441C95.8978 133.321 94.2974 138.174 94.468 143.128V143.258C94.3766 147.587 95.5589 151.847 97.868 155.51M139.943 142.546C138.023 145.895 135.31 148.721 132.043 150.776C128.859 152.801 125.153 153.853 121.38 153.804C116.344 153.794 112.967 152.639 110.687 150.755C109.613 149.884 108.757 148.775 108.187 147.516C107.595 146.068 107.304 144.514 107.332 142.95C107.303 141.111 107.764 139.297 108.667 137.695C109.344 136.484 110.84 135.067 113.577 133.757C116.177 132.498 120.389 131.334 125.994 130.524C131.587 129.788 137.22 129.393 142.861 129.34V131.814C142.874 135.589 141.866 139.297 139.943 142.546Z" fill="#272827"/>
</g>
<defs>
<clipPath id="clip0_1_21">
<rect width="523.797" height="235.112" fill="white" transform="translate(67 64)"/>
</clipPath>
</defs>
</svg>
