<svg width="300" height="100" viewBox="0 0 300 100" fill="none" xmlns="http://www.w3.org/2000/svg">
<path d="M84.9596 50.5997V27.6689C84.9596 27.0806 85.4385 26.6145 86.0177 26.6145H90.0049C90.5952 26.6145 91.063 27.0917 91.063 27.6689V45.3387C91.063 45.927 91.5419 46.3931 92.1211 46.3931H102.078C102.668 46.3931 103.136 46.8704 103.136 47.4475V50.6108C103.136 51.1991 102.657 51.6652 102.078 51.6652H86.0177C85.4385 51.6652 84.9596 51.188 84.9596 50.5997Z" fill="#066FEF"/>
<path d="M190.165 50.5997V27.6689C190.165 27.0806 190.644 26.6145 191.224 26.6145H195.211C195.801 26.6145 196.269 27.0917 196.269 27.6689V45.3387C196.269 45.927 196.748 46.3931 197.327 46.3931H207.284C207.874 46.3931 208.342 46.8704 208.342 47.4475V50.6108C208.342 51.1991 207.863 51.6652 207.284 51.6652H191.224C190.644 51.6652 190.165 51.188 190.165 50.5997Z" fill="#066FEF"/>
<path d="M118.428 25.9374C110.576 25.9374 104.762 30.9986 104.762 39.0344C104.762 46.9592 110.587 52.3423 118.428 52.3423C126.314 52.3423 132.138 46.9592 132.138 39.0344C132.127 30.9986 126.302 25.9374 118.428 25.9374ZM118.428 46.8149C114.207 46.8149 111.255 43.5629 111.255 39.0344C111.255 34.6503 114.162 31.3871 118.428 31.3871C122.694 31.3871 125.634 34.6392 125.634 39.0344C125.634 43.5629 122.649 46.8149 118.428 46.8149Z" fill="#066FEF"/>
<path d="M148.5 52.3312C140.759 52.3312 134.967 46.9481 134.967 39.101C134.967 31.0652 140.937 25.9374 148.6 25.9374C151.707 25.9374 155.037 26.9364 157.209 28.8232C157.666 29.2228 157.688 29.9331 157.254 30.366L154.67 32.941C154.269 33.3406 153.623 33.3517 153.211 32.9743C152.041 31.931 150.393 31.4204 148.811 31.4204C144.59 31.4204 141.572 34.6725 141.572 39.101C141.572 43.6628 144.523 46.7816 148.711 46.7816C150.66 46.7816 152.275 46.0713 153.389 44.9946C153.79 44.6062 154.436 44.6062 154.848 44.9946L157.499 47.4809C157.933 47.8915 157.944 48.5908 157.51 49.0014C155.327 51.0659 152.264 52.3312 148.5 52.3312Z" fill="#066FEF"/>
<path d="M175.92 26.7477H171.432C171.009 26.7477 170.619 27.003 170.452 27.3914L160.796 50.2112C160.506 50.9105 161.018 51.6763 161.776 51.6763H166.053C166.498 51.6763 166.888 51.4099 167.044 50.9993L168.369 47.503C168.525 47.0924 168.915 46.826 169.36 46.826H177.636C178.07 46.826 178.46 47.0924 178.616 47.4919L180.041 51.0215C180.197 51.421 180.587 51.6874 181.021 51.6874H185.454C186.212 51.6874 186.724 50.9216 186.434 50.2223L176.878 27.4025C176.733 27.003 176.355 26.7477 175.92 26.7477ZM170.908 40.5328L172.568 36.0598C172.913 35.1386 174.228 35.1386 174.562 36.0709L176.188 40.5439C176.433 41.232 175.932 41.9646 175.196 41.9646H171.9C171.165 41.9535 170.652 41.2209 170.908 40.5328Z" fill="#066FEF"/>
<path d="M227.165 26.7477H222.676C222.253 26.7477 221.863 27.003 221.696 27.3914L212.04 50.2112C211.75 50.9105 212.262 51.6763 213.02 51.6763H217.297C217.742 51.6763 218.132 51.4099 218.288 50.9993L219.613 47.503C219.769 47.0924 220.159 46.826 220.605 46.826H228.88C229.314 46.826 229.704 47.0924 229.86 47.4919L231.285 51.0215C231.441 51.421 231.831 51.6874 232.266 51.6874H236.698C237.456 51.6874 237.968 50.9216 237.678 50.2223L228.145 27.3914C227.978 27.003 227.588 26.7477 227.165 26.7477ZM222.153 40.5328L223.812 36.0598C224.157 35.1386 225.472 35.1386 225.806 36.0709L227.432 40.5439C227.677 41.232 227.176 41.9646 226.441 41.9646H223.155C222.409 41.9535 221.896 41.2209 222.153 40.5328Z" fill="#066FEF"/>
<path d="M241.064 50.5997V47.9137C241.064 46.9481 241.398 46.0047 242.011 45.2499L252.324 32.5858C252.603 32.2417 252.358 31.7201 251.912 31.7201H242.401C241.811 31.7201 241.343 31.2428 241.343 30.6657V27.6467C241.343 27.0584 241.822 26.5923 242.401 26.5923H259.564C260.154 26.5923 260.622 27.0695 260.622 27.6467V29.9331C260.622 30.9098 260.288 31.8533 259.664 32.608L249.083 45.5607C248.805 45.9048 249.05 46.4264 249.496 46.4264H259.82C260.41 46.4264 260.878 46.9037 260.878 47.4809V50.5997C260.878 51.188 260.399 51.6541 259.82 51.6541H242.122C241.543 51.6652 241.064 51.188 241.064 50.5997Z" fill="#066FEF"/>
<path d="M278.286 42.3198V50.5997C278.286 51.188 277.807 51.6541 277.228 51.6541H273.274C272.684 51.6541 272.216 51.1769 272.216 50.5997V42.2976C272.216 41.4762 271.982 40.6771 271.526 39.9889L263.841 28.235C263.384 27.5357 263.885 26.6034 264.732 26.6034H269.51C269.888 26.6034 270.234 26.8032 270.423 27.1362L275.023 35.0831C275.223 35.4383 275.736 35.4383 275.936 35.0831L280.536 27.1362C280.725 26.8143 281.071 26.6034 281.449 26.6034H285.96C286.806 26.6034 287.308 27.5468 286.84 28.2461L278.988 39.9778C278.542 40.6771 278.286 41.4873 278.286 42.3198Z" fill="#066FEF"/>
<path d="M51.4706 24.4959L51.1342 25.3083L48.4944 31.5754C48.7532 30.8533 48.2097 30.0925 47.4333 30.0925H25.8234C25.0211 30.0925 24.4776 30.9049 24.7882 31.6399L29.9642 43.9679C30.1454 44.3805 30.5465 44.6513 30.9994 44.6513H41.2739C42.0761 44.6513 42.6067 45.4509 42.322 46.1859L41.9985 46.9596L39.3587 53.2397C39.6175 52.5175 39.087 51.7438 38.2976 51.7438H34.9203C34.118 51.7438 33.5745 52.5562 33.8851 53.2912L42.6326 74.1173C43.0078 75.0071 42.3479 75.9871 41.3903 75.9871H36.0073C35.4638 75.9871 34.972 75.6647 34.765 75.1618L14.1773 26.1078C13.5562 24.6248 14.6432 23 16.2477 23H50.4096C51.186 23 51.7294 23.7737 51.4706 24.4959Z" fill="#066FEF"/>
<path d="M61.8098 29.9764L51.8718 53.562C51.3412 54.8129 50.1249 55.6253 48.7662 55.6253H40.0446C39.2423 55.6253 38.6988 54.8129 39.0094 54.065L39.3329 53.3041C39.3458 53.2912 39.3458 53.2654 39.3587 53.2526L41.9985 46.9725C41.6879 47.7075 42.2314 48.5328 43.0337 48.5328H45.3888C45.8417 48.5328 46.2558 48.262 46.424 47.8494L51.613 35.5214C51.9236 34.7864 51.3801 33.9611 50.5778 33.9611H49.1803C48.378 33.9611 47.8345 33.1487 48.145 32.4007L48.4685 31.6399C48.4815 31.6141 48.4815 31.6012 48.4944 31.5754L51.1213 25.3212C50.8107 26.0562 51.3542 26.8815 52.1565 26.8815H59.7394C61.3439 26.8686 62.4309 28.5063 61.8098 29.9764Z" fill="#A1CBFD"/>
<path d="M90.273 71.5198C90.273 71.3199 90.242 71.1414 90.18 70.9844C90.1228 70.8226 90.0155 70.6774 89.8581 70.5489C89.7054 70.4157 89.4884 70.2872 89.207 70.1634C88.9304 70.0349 88.5726 69.9017 88.1338 69.7637C87.6473 69.6114 87.1942 69.44 86.7745 69.2497C86.3547 69.0593 85.9851 68.838 85.6655 68.5858C85.3507 68.3336 85.1051 68.0433 84.9286 67.7149C84.7521 67.3817 84.6639 66.9963 84.6639 66.5584C84.6639 66.1301 84.7545 65.7399 84.9358 65.3877C85.1218 65.0355 85.3841 64.7333 85.7228 64.4811C86.0614 64.2241 86.4597 64.0266 86.9176 63.8886C87.3802 63.7506 87.8906 63.6815 88.4486 63.6815C89.2213 63.6815 89.8891 63.8219 90.4519 64.1027C91.0195 64.3835 91.4583 64.7642 91.7683 65.2449C92.0783 65.7256 92.2333 66.2657 92.2333 66.8654H90.273C90.273 66.5418 90.2039 66.2562 90.0655 66.0087C89.932 65.7613 89.7269 65.5661 89.4502 65.4234C89.1784 65.2806 88.835 65.2092 88.42 65.2092C88.0194 65.2092 87.6855 65.2687 87.4184 65.3877C87.156 65.5067 86.9581 65.6685 86.8246 65.8731C86.6958 66.0777 86.6314 66.3062 86.6314 66.5584C86.6314 66.7488 86.6767 66.9201 86.7673 67.0724C86.8579 67.2199 86.9939 67.3603 87.1751 67.4936C87.3564 67.6221 87.5805 67.7434 87.8476 67.8576C88.1195 67.9671 88.4343 68.0766 88.792 68.186C89.3644 68.3574 89.8652 68.5477 90.2945 68.7571C90.7285 68.9665 91.0886 69.2045 91.3748 69.471C91.6658 69.7375 91.8828 70.0373 92.0259 70.3704C92.1737 70.7036 92.2476 71.0819 92.2476 71.5055C92.2476 71.9528 92.1594 72.3526 91.9829 72.7048C91.8065 73.0569 91.5537 73.3568 91.2246 73.6042C90.8955 73.8517 90.4996 74.0397 90.0369 74.1682C89.579 74.2967 89.0663 74.3609 88.4987 74.3609C87.9931 74.3609 87.4923 74.2943 86.9963 74.1611C86.505 74.023 86.059 73.8184 85.6584 73.5471C85.2577 73.2711 84.9382 72.9237 84.6997 72.5049C84.4612 72.0813 84.3419 71.5864 84.3419 71.0201H86.3166C86.3166 71.3484 86.3691 71.6292 86.474 71.8624C86.5837 72.0909 86.7363 72.2788 86.9319 72.4264C87.1322 72.5691 87.3659 72.6738 87.633 72.7405C87.9001 72.8071 88.1887 72.8404 88.4987 72.8404C88.8994 72.8404 89.2285 72.7857 89.486 72.6762C89.7484 72.562 89.9439 72.405 90.0727 72.2051C90.2062 72.0052 90.273 71.7768 90.273 71.5198Z" fill="#6AAEFB"/>
<path d="M99.2361 70.4276H96.5532V68.8856H99.2361C99.675 68.8856 100.03 68.8142 100.302 68.6715C100.579 68.5239 100.782 68.324 100.91 68.0718C101.039 67.8148 101.103 67.5221 101.103 67.1938C101.103 66.8749 101.039 66.5775 100.91 66.3014C100.782 66.0254 100.579 65.8017 100.302 65.6304C100.03 65.4591 99.675 65.3734 99.2361 65.3734H97.1971V74.2182H95.2296V63.8243H99.2361C100.047 63.8243 100.739 63.9695 101.311 64.2598C101.888 64.5453 102.327 64.9427 102.627 65.4519C102.933 65.9564 103.085 66.5322 103.085 67.1795C103.085 67.8505 102.933 68.4287 102.627 68.9142C102.327 69.3996 101.888 69.7732 101.311 70.0349C100.739 70.2967 100.047 70.4276 99.2361 70.4276Z" fill="#6AAEFB"/>
<path d="M113 72.6762V74.2182H107.462V72.6762H113ZM108.063 63.8243V74.2182H106.096V63.8243H108.063ZM112.277 68.1146V69.6209H107.462V68.1146H112.277ZM112.978 63.8243V65.3734H107.462V63.8243H112.978Z" fill="#6AAEFB"/>
<path d="M119.974 65.402L117.005 74.2182H114.923L118.815 63.8243H120.146L119.974 65.402ZM122.457 74.2182L119.473 65.402L119.294 63.8243H120.632L124.546 74.2182H122.457ZM122.321 70.3562V71.9053H116.733V70.3562H122.321Z" fill="#6AAEFB"/>
<path d="M129.052 63.8243V74.2182H127.084V63.8243H129.052ZM135.305 63.8243L131.127 68.8927L128.737 71.4412L128.386 69.5352L130.046 67.3865L132.894 63.8243H135.305ZM133.115 74.2182L129.874 69.3496L131.284 68.0789L135.455 74.2182H133.115Z" fill="#6AAEFB"/>
<path d="M149.005 63.8243V74.2182H147.045V63.8243H149.005ZM152.239 63.8243V65.3734H143.847V63.8243H152.239Z" fill="#6AAEFB"/>
<path d="M161.925 68.1146V69.6566H156.444V68.1146H161.925ZM156.981 63.8243V74.2182H155.013V63.8243H156.981ZM163.384 63.8243V74.2182H161.417V63.8243H163.384Z" fill="#6AAEFB"/>
<path d="M173.757 72.6762V74.2182H168.219V72.6762H173.757ZM168.82 63.8243V74.2182H166.853V63.8243H168.82ZM173.034 68.1146V69.6209H168.219V68.1146H173.034ZM173.735 63.8243V65.3734H168.219V63.8243H173.735Z" fill="#6AAEFB"/>
<path d="M178.685 63.8243V74.2182H176.717V63.8243H178.685Z" fill="#6AAEFB"/>
<path d="M182.275 63.8243H186.059C186.851 63.8243 187.531 63.9433 188.099 64.1813C188.666 64.4192 189.103 64.7714 189.408 65.2378C189.713 65.7042 189.866 66.2776 189.866 66.9582C189.866 67.496 189.77 67.9623 189.579 68.3574C189.389 68.7524 189.119 69.0831 188.771 69.3496C188.428 69.6161 188.022 69.8255 187.555 69.9778L186.939 70.2919H183.598L183.584 68.7428H186.081C186.486 68.7428 186.823 68.6715 187.09 68.5287C187.357 68.3859 187.557 68.1884 187.691 67.9362C187.829 67.6839 187.898 67.396 187.898 67.0724C187.898 66.725 187.831 66.4252 187.698 66.1729C187.564 65.9159 187.362 65.7184 187.09 65.5804C186.818 65.4424 186.474 65.3734 186.059 65.3734H184.242V74.2182H182.275V63.8243ZM188.156 74.2182L185.745 69.5638L187.827 69.5566L190.266 74.1182V74.2182H188.156Z" fill="#6AAEFB"/>
<path d="M206.721 72.6762V74.2182H201.484V72.6762H206.721ZM202.078 63.8243V74.2182H200.11V63.8243H202.078Z" fill="#6AAEFB"/>
<path d="M213.788 65.402L210.819 74.2182H208.737L212.629 63.8243H213.96L213.788 65.402ZM216.271 74.2182L213.287 65.402L213.109 63.8243H214.446L218.36 74.2182H216.271ZM216.135 70.3562V71.9053H210.547V70.3562H216.135Z" fill="#6AAEFB"/>
<path d="M229.269 63.8243V74.2182H227.295L222.866 67.0081V74.2182H220.898V63.8243H222.866L227.309 71.0415V63.8243H229.269Z" fill="#6AAEFB"/>
<path d="M240.865 68.8428V72.8904C240.712 73.0855 240.472 73.2973 240.143 73.5257C239.818 73.7542 239.394 73.9517 238.869 74.1182C238.344 74.28 237.7 74.3609 236.937 74.3609C236.274 74.3609 235.669 74.2515 235.12 74.0326C234.572 73.8089 234.099 73.4829 233.703 73.0546C233.308 72.6263 233.002 72.1028 232.788 71.4841C232.573 70.8654 232.466 70.1587 232.466 69.3639V68.6786C232.466 67.8838 232.566 67.1771 232.766 66.5584C232.971 65.9397 233.262 65.4162 233.639 64.9879C234.021 64.5596 234.476 64.2336 235.006 64.0099C235.54 63.7862 236.136 63.6744 236.794 63.6744C237.677 63.6744 238.402 63.8196 238.969 64.1099C239.542 64.4002 239.98 64.7999 240.286 65.3092C240.591 65.8136 240.782 66.3942 240.858 67.051H238.941C238.888 66.6893 238.783 66.3728 238.626 66.1015C238.468 65.8255 238.244 65.6114 237.953 65.4591C237.667 65.302 237.295 65.2235 236.837 65.2235C236.451 65.2235 236.11 65.2996 235.814 65.4519C235.518 65.6042 235.27 65.8255 235.07 66.1158C234.87 66.4061 234.717 66.7654 234.612 67.1938C234.512 67.6221 234.462 68.1123 234.462 68.6643V69.3639C234.462 69.9207 234.519 70.4157 234.634 70.8487C234.748 71.2771 234.913 71.6387 235.127 71.9338C235.347 72.2241 235.616 72.4454 235.936 72.5977C236.26 72.7452 236.627 72.819 237.037 72.819C237.41 72.819 237.717 72.7881 237.96 72.7262C238.208 72.6596 238.406 72.581 238.554 72.4906C238.702 72.4002 238.817 72.3122 238.898 72.2265V70.2776H236.83V68.8428H240.865Z" fill="#6AAEFB"/>
<path d="M249.986 63.8243H251.953V70.7274C251.953 71.5221 251.781 72.1908 251.438 72.7333C251.095 73.2711 250.627 73.678 250.036 73.954C249.444 74.2253 248.772 74.3609 248.018 74.3609C247.255 74.3609 246.575 74.2253 245.979 73.954C245.383 73.678 244.916 73.2711 244.577 72.7333C244.238 72.1908 244.069 71.5221 244.069 70.7274V63.8243H246.036V70.7274C246.036 71.2128 246.117 71.6102 246.28 71.9195C246.442 72.2241 246.671 72.4502 246.966 72.5977C247.262 72.7452 247.613 72.819 248.018 72.819C248.428 72.819 248.779 72.7452 249.07 72.5977C249.366 72.4502 249.592 72.2241 249.75 71.9195C249.907 71.6102 249.986 71.2128 249.986 70.7274V63.8243Z" fill="#6AAEFB"/>
<path d="M259.271 65.402L256.302 74.2182H254.22L258.112 63.8243H259.442L259.271 65.402ZM261.753 74.2182L258.77 65.402L258.591 63.8243H259.929L263.842 74.2182H261.753ZM261.617 70.3562V71.9053H256.03V70.3562H261.617Z" fill="#6AAEFB"/>
<path d="M274.38 68.8428V72.8904C274.227 73.0855 273.986 73.2973 273.657 73.5257C273.333 73.7542 272.908 73.9517 272.383 74.1182C271.859 74.28 271.215 74.3609 270.452 74.3609C269.789 74.3609 269.183 74.2515 268.635 74.0326C268.086 73.8089 267.614 73.4829 267.218 73.0546C266.822 72.6263 266.517 72.1028 266.302 71.4841C266.088 70.8654 265.98 70.1587 265.98 69.3639V68.6786C265.98 67.8838 266.08 67.1771 266.281 66.5584C266.486 65.9397 266.777 65.4162 267.154 64.9879C267.535 64.5596 267.991 64.2336 268.52 64.0099C269.054 63.7862 269.65 63.6744 270.309 63.6744C271.191 63.6744 271.916 63.8196 272.484 64.1099C273.056 64.4002 273.495 64.7999 273.8 65.3092C274.105 65.8136 274.296 66.3942 274.372 67.051H272.455C272.403 66.6893 272.298 66.3728 272.14 66.1015C271.983 65.8255 271.759 65.6114 271.468 65.4591C271.182 65.302 270.809 65.2235 270.352 65.2235C269.965 65.2235 269.624 65.2996 269.328 65.4519C269.033 65.6042 268.785 65.8255 268.584 66.1158C268.384 66.4061 268.231 66.7654 268.127 67.1938C268.026 67.6221 267.976 68.1123 267.976 68.6643V69.3639C267.976 69.9207 268.034 70.4157 268.148 70.8487C268.262 71.2771 268.427 71.6387 268.642 71.9338C268.861 72.2241 269.131 72.4454 269.45 72.5977C269.774 72.7452 270.142 72.819 270.552 72.819C270.924 72.819 271.232 72.7881 271.475 72.7262C271.723 72.6596 271.921 72.581 272.069 72.4906C272.217 72.4002 272.331 72.3122 272.412 72.2265V70.2776H270.344V68.8428H274.38Z" fill="#6AAEFB"/>
<path d="M284.609 72.6762V74.2182H279.071V72.6762H284.609ZM279.672 63.8243V74.2182H277.705V63.8243H279.672ZM283.886 68.1146V69.6209H279.071V68.1146H283.886ZM284.588 63.8243V65.3734H279.071V63.8243H284.588Z" fill="#6AAEFB"/>
</svg>
