<svg width="960" height="320" viewBox="0 0 960 320" fill="none" xmlns="http://www.w3.org/2000/svg">
<g clip-path="url(#clip0_1_12)">
<path d="M420.217 270.566C403.811 270.566 389.592 267.051 377.561 260.023C365.529 252.994 356.196 243.161 349.561 230.523C342.998 217.885 339.717 203.118 339.717 186.22C339.717 169.323 342.998 154.52 349.561 141.811C356.196 129.103 365.529 119.234 377.561 112.205C389.592 105.176 403.811 101.662 420.217 101.662C436.623 101.662 450.842 105.176 462.873 112.205C474.904 119.234 484.201 129.103 490.764 141.811C497.399 154.52 500.717 169.323 500.717 186.22C500.717 203.118 497.399 217.885 490.764 230.523C484.201 243.161 474.904 252.994 462.873 260.023C450.842 267.051 436.623 270.566 420.217 270.566ZM420.436 239.682C429.331 239.682 436.769 237.303 442.748 232.546C448.727 227.719 453.175 221.258 456.092 213.164C459.081 205.07 460.576 196.054 460.576 186.114C460.576 176.103 459.081 167.051 456.092 158.957C453.175 150.792 448.727 144.296 442.748 139.468C436.769 134.641 429.331 132.227 420.436 132.227C411.321 132.227 403.738 134.641 397.686 139.468C391.706 144.296 387.222 150.792 384.232 158.957C381.316 167.051 379.857 176.103 379.857 186.114C379.857 196.054 381.316 205.07 384.232 213.164C387.222 221.258 391.706 227.719 397.686 232.546C403.738 237.303 411.321 239.682 420.436 239.682Z" fill="black"/>
<path d="M565.916 49.2656C570.334 49.2656 573.916 52.8474 573.916 57.2656V259.371C573.916 263.789 570.334 267.371 565.916 267.371H542.322C537.904 267.371 534.322 263.789 534.322 259.371V57.2656C534.322 52.8473 537.904 49.2656 542.322 49.2656H565.916Z" fill="black"/>
<path d="M690.521 103.792C694.94 103.792 698.521 107.374 698.521 111.792V125.611C698.521 130.029 694.94 133.611 690.521 133.611H609.943C605.525 133.611 601.943 130.029 601.943 125.611V111.792C601.943 107.374 605.525 103.792 609.943 103.792H690.521ZM625.787 72.6012C625.787 68.1829 629.369 64.6012 633.787 64.6012H657.381C661.799 64.6012 665.381 68.1829 665.381 72.6012V218.169C665.381 223.352 666.183 227.328 667.787 230.097C669.464 232.795 671.652 234.641 674.35 235.635C677.048 236.629 680.037 237.126 683.318 237.126C685.797 237.126 688.058 236.948 690.1 236.593C692.744 236.149 695.393 237.809 695.973 240.427L700.029 258.75C700.913 262.744 698.627 266.726 694.64 267.641C693.961 267.797 693.25 267.955 692.506 268.116C688.641 268.968 683.902 269.465 678.287 269.607C668.37 269.891 659.438 268.436 651.49 265.241C643.542 261.975 637.235 256.934 632.568 250.118C627.975 243.303 625.714 234.783 625.787 224.559V72.6012Z" fill="black"/>
<path d="M779.978 270.672C769.333 270.672 759.744 268.826 751.213 265.134C742.755 261.372 736.046 255.834 731.088 248.521C726.202 241.208 723.76 232.191 723.76 221.471C723.76 212.241 725.51 204.609 729.01 198.574C732.51 192.539 737.286 187.711 743.338 184.09C749.39 180.47 756.208 177.736 763.791 175.89C771.447 173.973 779.359 172.589 787.525 171.737C797.369 170.743 805.353 169.855 811.478 169.074C817.603 168.222 822.051 166.944 824.822 165.241C827.666 163.466 829.088 160.732 829.088 157.04V156.401C829.088 148.379 826.645 142.166 821.76 137.764C816.874 133.363 809.838 131.162 800.65 131.162C790.952 131.162 783.26 133.221 777.572 137.338C774.009 139.952 771.18 142.865 769.086 146.079C767.008 149.266 763.488 151.554 759.719 151.033L738.422 148.088C733.58 147.418 730.422 142.568 732.452 138.121C735.28 131.929 739.018 126.521 743.666 121.896C750.374 115.152 758.577 110.111 768.275 106.774C777.973 103.366 788.692 101.662 800.432 101.662C808.525 101.662 816.583 102.585 824.604 104.431C832.624 106.277 839.952 109.33 846.588 113.59C853.223 117.779 858.546 123.494 862.557 130.736C866.64 137.977 868.682 147.03 868.682 157.892V259.371C868.682 263.789 865.1 267.371 860.682 267.371H838.619C834.201 267.371 830.619 263.789 830.619 259.371V244.9H829.307C826.9 249.444 823.51 253.704 819.135 257.68C814.833 261.585 809.4 264.744 802.838 267.158C796.348 269.501 788.728 270.672 779.978 270.672ZM790.26 242.344C798.208 242.344 805.098 240.818 810.932 237.765C816.765 234.641 821.249 230.523 824.385 225.411C827.593 220.299 829.197 214.726 829.197 208.691V196.377C829.197 193.574 825.549 191.416 822.854 192.184C819.937 193.036 816.656 193.782 813.01 194.421C809.364 195.06 805.755 195.628 802.182 196.125C798.609 196.622 795.51 197.048 792.885 197.403C786.978 198.184 781.692 199.461 777.025 201.236C772.359 203.011 768.676 205.496 765.979 208.691C763.281 211.815 761.932 215.862 761.932 220.832C761.932 227.932 764.593 233.292 769.916 236.913C775.239 240.534 782.02 242.344 790.26 242.344Z" fill="black"/>
<path d="M123.837 58.452C121.089 54.7764 118.471 51.8369 114.583 50.4515C110.191 48.4921 105.262 48.3655 100.649 51.0055C98.9231 51.9929 97.7748 52.9091 96.8126 54.0005C91.4518 58.9357 89.8425 66.8706 93.3975 73.5578L93.4092 73.552C94.2232 75.3182 95.0204 76.8226 95.9992 78.6533L171.531 198.542L205.809 255.154C207.809 258.452 210.684 261.19 214.147 263.094C217.609 264.998 221.536 266 225.534 266C229.531 266 233.459 264.998 236.921 263.094C240.383 261.19 243.258 258.452 245.258 255.154L350.443 81.568C352.444 78.2708 353.498 74.5298 353.5 70.7211C353.502 66.9125 352.451 63.1705 350.453 59.8716C348.455 56.5727 345.58 53.8333 342.118 51.9287C338.656 50.0242 334.728 49.0218 330.731 49.0223H251.723C220.419 49.0223 197.333 62.1223 181.448 87.6799L175.626 97.2829L198.063 128.523L211.869 105.735C222.418 89.1523 234.402 83.1106 253.01 83.1106L308.148 83.1223L225.497 219.499L202.057 180.743L202.074 180.712L201.198 179.321L184.257 151.311L162.818 118.41L138.278 79.4623L123.837 58.452Z" fill="black"/>
<path d="M109.714 208.003C109.159 208.944 108.505 210.273 108.158 211.262C106.467 216.511 107.62 222.202 111.077 226.436C111.247 226.672 111.427 226.882 111.615 227.062C112.845 228.424 114.327 229.612 116.043 230.557C124.229 235.067 134.638 232.347 139.36 224.487C140.331 223.429 141.195 222.28 141.938 221.054L152.666 203.34L131.023 170.854L122.226 185.364L109.714 208.003Z" fill="black"/>
</g>
<defs>
<clipPath id="clip0_1_12">
<rect width="778" height="222" fill="white" transform="translate(91 49)"/>
</clipPath>
</defs>
</svg>
