<?xml version="1.0" encoding="UTF-8"?>
<svg id="Layer_2" data-name="Layer 2" xmlns="http://www.w3.org/2000/svg" viewBox="-60 -60 280.02 361.19">
  <defs>
    <style>
      .cls-1 {
        fill: #15CA82;
      }
    </style>
  </defs>
  <g id="Capa_1" data-name="Capa 1">
    <g>
      <path class="cls-1" d="M130.62,139.08c-7.79-7.83-22.53-9.25-32.71-10.95-12.11-2.03-8.31-7.53-4.49-16.91,5.91-14.48,20.68-9.6,32.79-7.55,17.31,2.93,21.01-24.01,3.75-26.93-3.99-.68-7.93-1.37-11.79-1.93,.16-4.47,.68-8.92,1.31-13.48,2.41-17.37-24.53-21.13-26.93-3.75-.85,6.13-1.45,12.24-1.54,18.37-5.43,1.99-10.5,5.49-15.07,11.26-9.21,11.63-18.25,33.69-12.16,48.43,6.99,16.93,25.74,18.47,41.43,21.41,14.75,2.76,14.75,17.41,13.83,29.26-.5,6.41-2.39,13.05-5.71,18.56-9.02,14.94-25.86-9.49-19.32-20.83,8.76-15.21-16.34-25.77-24.98-10.78-13.02,22.6,.69,45.59,20.41,58.11-.77,5.53-1.54,11.07-2.31,16.6-2.42,17.37,24.51,21.13,26.93,3.75,.76-5.46,1.52-10.92,2.28-16.38,12.54-4.83,22.42-18.28,26.55-30.82,7.43-22.59,4.77-48.31-12.26-65.41Z"/>
      <path class="cls-1" d="M220.02,122.05c-.31-48.83-16.13-117.84-75.15-119.75-.08-.02-.14-.05-.21-.06C95.36-5.38,45.99,5.09,24.05,54.17,5.28,96.17-1.64,150.26,.32,195.7c1.94,45.1,23.86,78.57,64.84,96.9,28.61,12.79,59.38,11.3,86.19-4.56,52.64-31.14,69.03-110,68.67-165.99Zm-71.68,133.97c-15.62,15.16-35,20.64-56.25,16.84-36.16-6.47-58.14-33.17-63.6-68.32-5.92-38.1,3.31-78.89,13.09-115.6,5.87-22,12.97-42.8,34.23-54.32,19.58-10.61,43.99-8.7,65.11-5.44,1.42,.22,2.72,.18,3.95,.03,41.52-.39,47.48,62.91,48.16,92.31,1.04,45.25-11.04,101.85-44.69,134.51Z"/>
    </g>
  </g>
</svg>