<svg height="512" viewBox="0 0 64 64" width="512" xmlns="http://www.w3.org/2000/svg"><path d="m58.43933 46.86847a.99925.99925 0 0 0 .44391-.55109c1.30823-4.23651-2.05023-9.16882-6.1604-10.25348 5.52985-3.86834 3.6203-12.93664-3.04974-14.03582a7.985 7.985 0 0 0 -4.1561-6.42029c4.31128-1.99066 5.2915-8.30017 1.90381-11.58924-1.00766-1.24511-4.76462-3.38995-5.63706-1.17327-6.78448.14434-8.6333 9.29718-2.91485 12.546a6.12915 6.12915 0 0 0 -2.18738 1.54181c-1.08136-.95685-4.522-2.58191-5.08667-.485a5.1802 5.1802 0 0 0 -2.21375.35358 5.31326 5.31326 0 0 0 -2.04651-1.27607 7.36653 7.36653 0 0 0 1.71491-11.49832c-1.00635-1.24359-4.7644-3.39081-5.63702-1.17328-6.80249.14631-8.63471 9.33417-2.885 12.56336-2.67505.835-6.33258 4.09613-5.87879 7.12738-6.67084.62933-8.54516 9.31512-3.24566 13.07715a9.76107 9.76107 0 0 0 -6.24781 8.12085 4.3535 4.3535 0 0 0 .43537 3.10913c-1.18129.65783-5.11775 3.74225-3.21638 5.07062a.44674.44674 0 0 0 .3985.40527 4.21119 4.21119 0 0 1 2.151 1.08655c.2348.21484.38385.33892.32476.66351-.70965 2.29816-1.75726 4.53345-2.373 6.86786a.88547.88547 0 0 0 1.35608.95746c1.13391.41021 1.81665-.97138 2.526-1.61762a6.58028 6.58028 0 0 1 3.32208-2.35565c.61774-.26874 2.5835.33795 2.56165-.87659 1.11993-.70269 5.26294-3.85571 4.23669-5.27142a.73866.73866 0 0 0 -.89477-.11548c-1.38257.9903-2.46094 2.34625-3.91358 3.24854-.27649-1.00568-.20972-1.98163-.49768-2.93347a.76857.76857 0 0 0 -.72162-.54938c-1.47656.2218-.85315 3.23645-.71069 4.28747a6.94452 6.94452 0 0 0 -4.44544 2.34931c.34723-1.09979.7143-2.19556 1.03833-3.30219.60682-1.81347-1.16906-3.16058-2.76623-3.45166 1.292-1.74554 3.29138-3.61957 5.58453-3.50134.46259.25909 1.30316.22687 1.50287-.359a3.45338 3.45338 0 0 0 3.37384 3.5163q2.60129.45117 5.22028.80108a113.03314 113.03314 0 0 0 16.60819 1.11529c3.56958.03937 7.49036-.87879 10.75922-.14295a12.162 12.162 0 0 0 4.31445 4.3089c-.02893 1.13367 1.6239.65192 2.35651.83246 2.03857.34674 3.29993 2.22925 4.65643 3.62256a1.29958 1.29958 0 0 0 1.39905.39386.88345.88345 0 0 0 1.35382-.95654c-.61835-2.334-1.65875-4.56873-2.373-6.8678-.06347-.31653.09711-.45514.32483-.66351a4.21069 4.21069 0 0 1 2.151-1.08655.44792.44792 0 0 0 .39746-.42566c1.95745-1.21124-2.02119-4.388-3.15644-5.03363zm-5.411-8.70728a7.53437 7.53437 0 0 1 3.76691 7.94092 4.38845 4.38845 0 0 0 -3.23157-.10058c-.22937-1.80188.26459-3.70771-.604-5.3656-1.6482-2.33692-5.07514-1.64759-7.57111-2.26532a7.81375 7.81375 0 0 1 7.63976-.20942zm-7.63446-3.94574a5.02082 5.02082 0 0 1 -.21533-8.22668 6.33481 6.33481 0 0 1 1.60986-.82648c.71118-.28009 1.57019-.14758 2.19025-.61743 8.03014 2.55176 3.83098 13.39868-3.58479 9.67059zm-7.70576-25.87493a4.77958 4.77958 0 0 1 3.21521-3.3313c.64874-.24335 1.40241-.16315 1.98419-.55365 3.88806 1.07183 5.45209 5.7008 2.1883 8.49426a4.62586 4.62586 0 0 1 -7.3877-4.60931zm2.012 14.02044a7.86171 7.86171 0 0 0 -1.6726-4.03686c4.21075-3.28186 9.58215-.64716 9.62542 4.662-7.509.34449-9.06488 10.58606-2.48437 13.70661a6.54581 6.54581 0 0 0 -2.39466 1.38141c-.43341-.04413-.86651-.09046-1.30035-.12848a9.55944 9.55944 0 0 0 -5.4754-8.14459 7.90007 7.90007 0 0 0 3.70192-7.44005zm-.573 15.41681a132.02431 132.02431 0 0 0 -15.44672.03992c.38147-3.794 2.56348-6.816 6.49011-7.23a7.86674 7.86674 0 0 0 3.10339.17053 8.16047 8.16047 0 0 1 5.85319 7.01955zm-10.21195-18.33577a6.3391 6.3391 0 0 1 1.61-.82648c.7113-.27985 1.57006-.14789 2.19024-.61743 4.149 1.02105 6.0423 6.49609 2.42511 9.37256-5.52222 3.98586-11.62373-3.64-6.22535-7.92865zm-9.59833-11.09276a4.77961 4.77961 0 0 1 3.21517-3.3313c.64869-.24334 1.40241-.16314 1.9842-.55365 3.88806 1.07184 5.45208 5.70081 2.18829 8.49427a4.62587 4.62587 0 0 1 -7.38766-4.60932zm-2.61183 12.75934a7.93287 7.93287 0 0 1 10.76745-3.235c-3.98913 2.8291-3.45367 9.42065.68524 11.84924-3.17053 1.45227-5.99987 4.58832-6.1828 8.20666q-.58694.04167-1.17413.088c.107-.884-.75269-1.59516-1.51141-1.92951 6.554-3.52 4.62829-13.95056-2.826-14.51556.0787-.15541.15298-.31301.24165-.46383zm-6.13823 7.27832a5.2536 5.2536 0 0 1 3.54486-3.66614c.71131-.27984 1.57007-.14782 2.19025-.61737 4.149 1.02106 6.04224 6.4961 2.42511 9.37256a5.107 5.107 0 0 1 -8.16022-5.08905zm.69385 10.71228c-.05908 2.53107-.084 4.9364-.22314 7.48883-.74866-1.1972-2.56745-.91394-3.7082-.52722-.45581-6.66351 5.86365-11.3302 11.88373-7.91089q-2.71958.24472-5.44677.58557a1.2887 1.2887 0 0 0 -2.50562.36371zm36.67338 11.84632c-4.61212 1.267-9.42554-.12018-14.12482-.27417-6.4906-.6355-13.0393-1.21405-19.441-2.42176-.698-.19525-.61517-.64758-.62085-1.3305.0069-2.30438.04639-4.60919.06-6.9137a144.809 144.809 0 0 1 36.70701 1.73413c.91724.49359.71326 2.38019.75867 3.27039-.11676 1.79278 1.33765 5.502-1.43683 5.64715-.63418.09583-1.26709.19886-1.90218.28846zm10.36434 1.0915c-2.36 1.43695-.46124 4.02429-.02039 6.035a6.938 6.938 0 0 0 -4.44659-2.35242 7.68572 7.68572 0 0 0 .01093-3.73815.75225.75225 0 0 0 -1.44324 0c-.27118 1.10137-.2428 1.97021-.49713 2.93353a17.569 17.569 0 0 1 -2.60663-2.16821c2.91168-.17725 4.43121-1.84241 4.34-4.77967 2.56775-.68493 4.97132 1.36756 6.36481 3.34717a4.08287 4.08287 0 0 0 -1.70176.72275z" fill="rgb(0,0,0)"/></svg>