<?xml version="1.0" encoding="UTF-8"?>
<svg id="Layer_2" data-name="Layer 2" xmlns="http://www.w3.org/2000/svg" viewBox="0 0 37.37 70.77">
  <defs>
    <style>
      .cls-1 {
        fill: none;
        stroke: #000;
        stroke-linecap: round;
        stroke-linejoin: round;
        stroke-width: 3px;
      }
    </style>
  </defs>
  <g id="Layer_1-2" data-name="Layer 1">
    <path class="cls-1" d="M20.51,28.07c1.52-6.85,2.76-13.77,4.35-20.61,.3-1.29,.54-2.59,.8-3.89,.14-.67,1.16-1.81,.5-2-2.81-.77-6.58,5.5-7.66,7.16C12.8,17.41,6.62,26.42,1.5,35.45c-.17,.3,4.63,2.29,5,2.41,4.14,1.3,12.23-.79,11.93,4.85-.31,5.93-2.44,12.62-4.78,18-.83,1.93-1.7,3.85-2.61,5.73-.08,.16-1.32,2.82-1.31,2.83,.2,.07,1.73-1.59,1.77-1.63,2.13-2.36,4.14-4.84,6-7.42,6.88-8.94,15-20.3,18.36-31.25,.16-.54-3.12-1.25-3.41-1.3-3.43-.34-6.89-.17-10.26,.52"/>
  </g>
</svg>