<svg height="512" viewBox="0 0 64 64" width="512" xmlns="http://www.w3.org/2000/svg"><g fill="rgb(0,0,0)"><path d="m57.986 6.99392h-26c-6.20953-.20416-3.41278 10.54236-4 14-2.32587 1.21558-26.868-2.868-26.00018 2.739 1.25988 2.25549-2.9087 34.30469 2.65893 33.26184l44.68109-.0008c5.19709.52625 1.68933-17.63159 2.66016-20 3.258-.12994 10.09466 1.1504 9.99975-4.0003-1.31891-3.59739 3.57366-26.65122-3.99975-25.99974zm-53.33985 16h23.33985v4h-24c.19579-.63018-.55244-4.04327.66014-4zm45.33985 31.25977c.19214 2.08783-44.62854.04834-45.34119.74164-1.75171.12994-.11651-25.33368-.65881-26.00141h24c-3.14111 12.65888 15.67956 6.73554 22 8zm-17.99934-19.25848c-4.1394.871-1.13184-22.42017-2.00189-24.00092a2.00189 2.00189 0 0 1 2.00123-2.00037c29.35785 2.0224 28.93786-9.83233 28 24 1.08788 4.16779-26.52467 1.11243-27.99934 2.00129z"/><path d="m6.1788 25.67471c1.04413.10529 2.28882.36493 3.2121-.25152a.662.662 0 0 0 0-1.13337c-.91724-.52606-2.24237-.11279-3.2121.14173a.649.649 0 0 0 0 1.24316z"/><path d="m12.65738 25.8165c.55041.06231 1.27636-.30878 1.1054-.9538-.3089-1.20728-3.36554-.56494-2.34192.74286.33588.33594.81104.21191 1.23652.21094z"/><path d="m17.0104 24.72537a.85168.85168 0 1 0 -1.42981.8324.85168.85168 0 0 0 1.42981-.8324z"/><path d="m8.51779 33.28927c2.36493.07959 4.759-.36828 7.095-.16088a.74719.74719 0 0 0 .505-.26557c-.03021.11841.07209-.06445.11176-.1217.11639-.199.09-.18073.03345-.10517.45605-1.454-1.56012-1.58264-2.52961-1.40741-1.71411.15058-3.434.24146-5.14.47077a1.762 1.762 0 0 0 -1.15155.36694c-.59084.71588.25368 1.35748 1.07595 1.22302z"/><path d="m7.46518 37.28891c3.37085.18371 6.80554-.19513 10.19525-.03546a.978.978 0 0 0 -.00006-1.95588c-.82737-.21624-13.40522.06415-10.19519 1.99134z"/><path d="m7.90249 40.64865a.56548.56548 0 0 0 .14951 1.10486c3.53125.266 7.08923-.407 10.62866-.50708 3.55451-.19654 7.10736-.2226 10.66492-.306a.9967.9967 0 0 0 0-1.99219 149.9127 149.9127 0 0 0 -16.29871.77509 21.76463 21.76463 0 0 0 -5.14438.92532z"/><path d="m32.28122 43.36423c-2.06177-.26929-4.11194.38684-6.18518.32824a75.62305 75.62305 0 0 0 -19.08904 1.35297c-.597.145-.41436.96423.13709 1.013 6.15051.47821 12.31531-.89191 18.47327-.3244 2.14032.2442 4.24676-.41077 6.36792-.18317a1.10815 1.10815 0 1 0 .29594-2.18664z"/><path d="m14.34262 48.9769c-2.34015.12329-4.71662-.31147-7.0008.37829a.48287.48287 0 0 0 .12775.94379c2.31592.188 4.62537.54315 6.95447.51562.658-.01336 1.95923-.05316 2.26727-.76538.46631-1.35498-1.53607-1.18103-2.34869-1.07232z"/><path d="m41.45559 24.9501c-1.76129-.92175-3.56439-1.75256-5.39477-2.528a65.33017 65.33017 0 0 0 4.30865-5.144c.48493-.74145-.54278-1.36267-1.14117-.88043a54.22939 54.22939 0 0 0 -5.524 5.82984.93717.93717 0 0 0 .55219 1.35711 16.86847 16.86847 0 0 1 3.15344 1.35462 33.35936 33.35936 0 0 1 3.0166 1.77154c1.10755.71051 2.18971-1.14404 1.02906-1.76068z"/><path d="m49.39291 12.84707c-2.6463 5.48285-4.40015 11.55158-8.79266 15.99518a1.14529 1.14529 0 0 0 1.61865 1.61865c4.40845-4.64868 6.30121-11.18511 8.26672-17.15313a.60056.60056 0 0 0 -1.09271-.4607z"/><path d="m55.036 17.97c-1.00263-.694-2.03809-1.295-3.098-1.89728a.55316.55316 0 0 0 -.66742.86505 45.8948 45.8948 0 0 0 4.42567 3.98523 68.39949 68.39949 0 0 1 -5.35766 4.393c-.9455.80218.3136 2.46362 1.33771 1.73376 2.19445-1.717 4.27179-3.59869 6.38281-5.42291a1.051 1.051 0 0 0 -.00006-1.483c-.98242-.76296-2.00043-1.46603-3.02305-2.17385z"/></g></svg>