<svg height="512" viewBox="0 0 64 64" width="512" xmlns="http://www.w3.org/2000/svg"><g fill="rgb(0,0,0)"><path d="m14.507 43.18329c-.57556-.46082 15.34-.24866 25.93347-.44708 6.53131-.12232 11.03961.07153 8.41266-1.55317-42.11621-2.3211-34.446 10.86127-34.99994-26h46v25.25635a.70439.70439 0 0 1 -.65527.74365c-1.14643-.11669-8.10523-.28021-4.34467 2 2.24335-.14062 7.076.89686 6.99976-2.74383-1.08134-2.10721 2.74928-34.52289-2.65507-33.25621-1.68024 1.19243-49.70179-2.9839-47.34516 2.74193 1.08838 2.15307-1.68036 29.7879 2.65422 33.25836zm.00148-34.00029h44.68946c1.22516-.04779.44568 3.38294.65527 4h-46c.29041-.63008-.6178-4.03786.65527-4z"/><path d="m32.85321 52.183a1.00019 1.00019 0 0 0 -.00006-2c-3.99921-.62978-3.98999 2.63121.00006 2z"/><path d="m26.32782 37.98724c1.54675.90992 4.996-.67028 2.23926-1.80493-1.43787-.36365-4.49488.14221-2.23926 1.80493z"/><path d="m22.77313 31.75922c-1.717.325-.61371 3.746.7262 3.88244 1.84973.05207.52795-4.04675-.7262-3.88244z"/><path d="m32.4245 27.183c.00116-1.50311-4.00031-1.503-4-.00042-.00116 1.50352 4.0003 1.50342 4 .00042z"/><path d="m44.56708 36.183a1.00019 1.00019 0 0 0 .00006 2c3.99921.62981 3.98999-2.63118-.00006-2z"/><path d="m38.85321 52.183a1.00019 1.00019 0 0 0 -.00006-2c-3.99921-.62978-3.98999 2.63121.00006 2z"/><path d="m32.56708 38.183h2a1.00019 1.00019 0 0 0 -.00006-2h-1.99994a1.00019 1.00019 0 0 0 0 2z"/><path d="m25.988 28.64349c2.56555-4.14129-5.92127.043-2.00568 1.37433.85551-.04614 1.21183-1.10022 2.00568-1.37433z"/><path d="m51.15558 50.36407c1.02368-2.554-1.63464-1.486-2.74573-.495-2.10528 2.21955 1.84644 2.24415 2.74573.495z"/><path d="m50.90942 37.762c-2.58386-.95068-1.43994 1.676-.41656 2.7594 2.36169 2.05019 2.1709-1.83884.41656-2.7594z"/><path d="m44.85321 52.183a1.00019 1.00019 0 0 0 -.00006-2c-3.99921-.62978-3.98999 2.63121.00006 2z"/><path d="m26.85321 52.183a1.00019 1.00019 0 0 0 -.00006-2c-3.99921-.62978-3.98999 2.63121.00006 2z"/><path d="m52.85321 46.03992v-1.99992a1.00019 1.00019 0 0 0 -2 0v2a1.00019 1.00019 0 0 0 2-.00008z"/><path d="m20.85321 52.183a1.00019 1.00019 0 0 0 -.00006-2c-3.99921-.62978-3.98999 2.63121.00006 2z"/><path d="m38.56708 38.183h2a1.00019 1.00019 0 0 0 -.00006-2h-1.99994a1.00019 1.00019 0 0 0 0 2z"/><path d="m38.4245 27.183c.00116-1.50311-4.00031-1.503-4-.00042-.00116 1.50352 4.0003 1.50342 4 .00042z"/><path d="m42.12384 26.183c-1.56342-.48864-2.50232 1.74769-.69928 2 .0611-.0108 1.43915.02167 1.49146-.01269 2.23059 3.79584 4.93817 5.76587 5.93719 6.01269 19.05463-11.112-6.5578-27.75112-6.72937-8zm6.72937 5.76075c-1.40723-1.08594-5-4.20606-5-7.76075 3.83779-12.44753 16.80847.4348 5 7.76079z"/><path d="m7.85321 57.183a6.00448 6.00448 0 0 0 5.90967-5c2.74542.52924 2.74158-2.53 0-2-4.87024-13.97383-20.38037 4.6403-5.90967 7zm0-10a4.00016 4.00016 0 0 1 -.00006 8 4.00016 4.00016 0 0 1 .00006-8z"/><path d="m50.80145 21.99707c-.97717-.78961-2.36407-.38013-3.37787.02277a3.18171 3.18171 0 0 0 -1.50732 4.9743 3.09693 3.09693 0 0 0 5.07928-.74213c.76111-1.31707 1.32599-3.24487-.19409-4.25494zm-.40265 1.82251c-.94183 5.89819-7.0559 1.18719-1.77887-1.094.54914.22973 1.27228.21215 1.64093.712-.06347-.07989.1269.2356.08411.13336a1.30163 1.30163 0 0 1 .0434.14106c.03857.13212.01397-.02157.01043.10758z"/><path d="m44.67352 11.91724c.50177.07635 1.09534-.14527 1.67523-.05854.50361-.0288 1.104.23249 1.55811.05561a.47657.47657 0 0 0 .2818-.658c-.316-.63166-1.22314-.60822-1.83991-.65369a3.45647 3.45647 0 0 0 -1.90271.45276.521.521 0 0 0 .22748.86186z"/><path d="m50.37073 11.97308a3.33313 3.33313 0 0 0 1.26532.23468c.66351.17084 1.8446-.05719 1.425-.97277-.41175-.62012-1.26551-.3852-1.89734-.43519a1.56216 1.56216 0 0 0 -.65015.08094.605.605 0 0 0 -.14283 1.09234z"/><path d="m57.004 12.31067a.66422.66422 0 0 0 0-1.32819c-.62854.05908-1.91053-.16638-2.17047.5528l.10766-.18476a.34318.34318 0 0 0 -.04053.55866c.37334.51721 1.51218.35608 2.10334.40149z"/><path d="m8.28473 52.08813a1.03765 1.03765 0 0 0 .08636-2.00823c-.10089-.35553-.5813-.27283-.83551-.13233a1.336 1.336 0 0 0 -.691 1.14972c-.09733.69281.84774 1.61536 1.44015.99084z"/></g></svg>