<svg height="512" viewBox="0 0 64 64" width="512" xmlns="http://www.w3.org/2000/svg"><g fill="rgb(0,0,0)"><path d="m13.59978 24.90312a1.00672 1.00672 0 0 0 -1.707.70709v23.85737a1.00005 1.00005 0 0 0 1 1c.395-.79017 27.73694 1.91449 24.56488-1.7071zm.293 23.56446v-20.44336l20.44382 20.44336z"/><path d="m42.89281 6.46831-.00006 33.58136c-48.79775-48.9386-40.6612-49.88458-40.99915 17.42224-3.241 6.28717 55.64185 1.65936 56.99842 2.99963 5.944 2.57965 2.72186-56.00311 2.12072-56.12188-2.1474-1.19928-18.73089-2.74628-18.11993 2.11865zm.17993 52.00134h-38.18c-2.80933.19849.09326-49.69214-.83234-50.69324.67267-2.99627 3.45746.0412 4.33234.60327-4.3794 3.32349-1.91175 5.7909 1.41 1.42l2.13 2.12c-4.39191 3.32587-1.90638 5.785 1.41 1.41l2.12 2.12c-7.30988 6.11591-4.65931 8.69916 1.42 1.42l2.12 2.12c-4.3833 3.33368-1.9096 5.78235 1.41 1.41l2.12 2.12006c-4.379 3.34277-1.902 5.79456 1.42 1.42l2.12 2.12c-7.30072 6.1123-4.66473 8.67907 1.41 1.41l2.12 2.13c-4.38171 3.33569-1.88971 5.77838 1.42 1.41l2.12 2.12c-4.38611 3.33027-1.90186 5.79108 1.41 1.41l2.12006 2.13c-7.30445 6.11841-4.6413 8.67176 1.42 1.41l2.12 2.12c-4.37946 3.32349-1.91175 5.79083 1.41 1.42.46606.15186 1.238.31647 1.45 1.17286.97699 3.94646-.7384 14.22972-.00006 15.67705zm16.82-48v3c-9.33063-.83655-9.28321 2.84064 0 2v3c-5.29889-.73254-5.28223 2.73462 0 2v3c-5.29889-.73254-5.28223 2.73462 0 2v3c-9.33063-.83655-9.28321 2.84064 0 2v3c-5.29889-.73254-5.28223 2.73462 0 2v3c-5.29889-.73254-5.28223 2.73462 0 2v3c-9.33063-.83655-9.28321 2.84064 0 2v3c-5.29889-.73254-5.28223 2.73462 0 2v2.41c-5.29889-.73254-5.28223 2.73462 0 2-.1731.80365.58178 3.68824-.99994 3.58973-.78412-.60144-14.5022 1.19183-14.00043-.99945.92383-.99945-1.80859-52.19873.998-51.99793 2.05578.91181 16.24261-2.53876 14.00232 2.99762-5.29883-.73251-5.28217 2.73465.00006 2.00003z"/><path d="m48.057 51.64311c-.24444-.54284.06409-1.76117-.77343-1.89422-1.0008-.05915-.81153 1.28564-.93634 1.95971-.11554 1.38111.63672 5.14252 2.61285 4.74518a.9916.9916 0 0 0 .32922-1.68078 8.704 8.704 0 0 1 -1.2323-3.12989z"/><path d="m51.71672 55.311a.96152.96152 0 0 0 0 1.92188.96152.96152 0 0 0 0-1.92188z"/><path d="m9.47478 54.30266c-2.57324-.10028-2.93286-3.16284-3.65375-5.05914-.11151-.25312-.45929-.14-.53558.07006a5.56934 5.56934 0 0 0 .64123 4.42536c.551 1.132 3.33435 3.5545 4.407 2.06061a1.00642 1.00642 0 0 0 -.8589-1.49689z"/><path d="m12.82317 54.72429a.96151.96151 0 0 0 0 1.92187.96151.96151 0 0 0 0-1.92187z"/></g></svg>