<?xml version="1.0" encoding="UTF-8"?>
<svg id="Layer_2" data-name="Layer 2" xmlns="http://www.w3.org/2000/svg" viewBox="0 0 84.6 83.2">
  <defs>
    <style>
      .cls-1 {
        fill: none;
        stroke: #000;
        stroke-linecap: round;
        stroke-miterlimit: 1.5;
        stroke-width: 3px;
      }
    </style>
  </defs>
  <g id="Layer_1-2" data-name="Layer 1">
    <path class="cls-1" d="M48.16,27.95c-2.31-1.89-4.6-3.8-6.81-5.81-1.48-1.35-2.91-2.75-4.35-4.15-13.92-13.56-5.63,14.56-8.17,18.68-3.72,6-11.13,4.89-16.55,7.89-.59,.29-1.01,.83-1.16,1.47-1.56,6.4,15.6,2.33,19.63,7.6,3.14,4.1,.31,17.56,6.27,19.32,6.27,1.85,7.51-15.36,10.36-17.79,4.79-4.09,14.79,1.13,19.86,2.44,.34,.09,1.51,.48,1.79,.08,4-5.61-6.44-14.83-8.32-19.37-2.66-6.41,4.82-11.57,3-17.6-2.8-9.06-14.56,2.46-15.69,7.09"/>
    <path class="cls-1" d="M11.4,25.68c-3.3-.69-6.61-1.33-9.9-2.08"/>
    <path class="cls-1" d="M17.39,17.84c-2.37-1.19-4.82-2.2-7.33-3.05"/>
    <path class="cls-1" d="M13.85,61.32c-1,.59-1.93,1.22-2.88,1.85"/>
    <path class="cls-1" d="M18.26,69.22c-1.65,2.74-3.53,5.34-5.61,7.77"/>
    <path class="cls-1" d="M49.19,79.75c.16,.64,.29,1.29,.38,1.95"/>
    <path class="cls-1" d="M58.1,71.45c1.74,3.23,3.78,6.3,6.09,9.15"/>
    <path class="cls-1" d="M74.11,47.38c3,1,5.9,2.12,8.89,3"/>
    <path class="cls-1" d="M83.1,38.42l-4.65-1"/>
    <path class="cls-1" d="M51.62,11.88c2.45-3,5.18-5.77,8.14-8.27"/>
    <path class="cls-1" d="M44.02,5.26c1.12-1.32,2.3-2.57,3.55-3.76"/>
  </g>
</svg>