<?xml version="1.0" encoding="UTF-8"?>
<svg id="hand_drawn" data-name="hand drawn" xmlns="http://www.w3.org/2000/svg" viewBox="0 0 551 399">
  <defs>
    <style>
      .cls-1 {
        fill: #fff;
      }

      .cls-2 {
        stroke: #d7143a;
        stroke-linecap: round;
        stroke-linejoin: round;
        stroke-width: 5px;
      }

      .cls-2, .cls-3 {
        fill: none;
      }

      .cls-3 {
        stroke: #000;
        stroke-miterlimit: 10;
        stroke-width: 10px;
      }
    </style>
  </defs>
  <g id="youtube">
    <path class="cls-1" d="M229,122c42,22,88,36,132,73-35.59,30.18-91,60-133,70-8-64-13.48-72.36,1-143Z"/>
    <g>
      <path class="cls-2" d="M238.54,124.22c2.52,5.93,226.83-108.03,231.05-98.08,1.56,3.68-225.2,88.76-219.62,101.91,4.49,10.57,231.05-100.35,231.87-98.42,3.35,7.88-228.06,90.49-222.66,103.21,4.54,10.69,228-110.99,233.11-98.95s-225.86,99.11-223.9,103.73c5.5,12.97,228.84-107.8,232.67-98.76,5.63,13.26-226.5,96.39-223.46,103.55,4.11,9.69,227.58-105.38,230.74-97.94,3.47,8.18-222.12,101.33-221.53,102.72,4.53,10.67,224.51-103.58,227.49-96.56,3.93,9.27-220.39,96.36-218.28,101.34,2.78,6.54,221.39-98.75,223.11-94.7,2.88,6.78-215.06,96.75-213.9,99.48s217.12-93.9,217.74-92.43c4.73,11.15-208.84,96.49-208.54,97.21,.4,.94,210-93.49,211.56-89.8,.54,1.28-204.44,89.66-202.35,94.58,1.77,4.16,199.74-98.52,204.68-86.88,4.76,11.21-197.59,86.69-195.48,91.67,3.32,7.82,193.54-92.47,197.25-83.73,2.53,5.95-189.62,84.77-188.04,88.51,1.11,2.62,187.51-84.68,189.34-80.37,.06,.14-181.53,81.87-180.13,85.15,2.23,5.25,179.77-79.95,181.08-76.86,3.13,7.36-175.47,79.18-174.04,82.57,4.35,10.25,171.51-81.65,174.7-74.15,3.55,8.36-173.6,77.36-171.79,81.61,.26,.62,168.75-81.29,172.23-73.11,2.33,5.48-175.25,79.15-173.84,82.48,1.79,4.21,172.06-78.71,174.11-73.9,.15,.35-227.39,103.63-226.82,104.97,5.16,12.17,224.85-101.33,226.97-96.34"/>
      <path class="cls-2" d="M59.49,39.07c.41,.96,27.49-13.41,28.12-11.93,.76,1.79-44.57,27.22-44.43,27.55,.1,.23,76.83-35.78,77.97-33.1,1.07,2.52-84.83,43.7-84.47,44.55,2.53,5.96,106.74-49.59,108.28-45.96,1.91,4.51-114.17,51.1-111.99,56.23,1.9,4.48,132.92-56.97,133.12-56.5,3.18,7.5-137.58,61.1-135.42,66.17,2.43,5.73,153.07-72.83,155.9-66.17,2.17,5.1-157.96,74.09-157.37,75.49,3.46,8.15,176.34-79.04,177.84-75.49C211.66,30.8,25.69,98.45,28.25,104.48c1.19,2.81,195.75-92.83,199.25-84.58,3.72,8.76-202.82,86.46-199.83,93.51C31.72,122.94,242.51,7.02,247.98,19.9c3.71,8.74-221.25,100.9-220.64,102.35,1.01,2.38,237.11-111.78,241.12-102.35,1.62,3.83-245.63,100.89-241.29,111.11,2.21,5.21,261.18-112.49,261.76-111.11,3.8,8.95-263.07,116.94-261.84,119.84,1.61,3.8,278.81-128.09,282.32-119.84,5.76,13.57-282.95,127.1-282.34,128.54C33.28,163.08,323.06,3.85,329.88,19.9c3.04,7.16-306.43,128.72-302.81,137.23S344.89,7.03,350.35,19.9C354.12,28.79,24.35,159.43,27.06,165.82,33.88,181.88,362.89,1.22,370.82,19.9,379.01,39.19,23.44,165.98,27.06,174.51,32.26,186.77,385.17,5.47,391.3,19.9,395.49,29.78,22.67,172.86,27.06,183.2,35.32,202.65,401.8-2.62,411.42,20.05c1.74,4.09-388.78,161.44-384.36,171.84C30.58,200.19,421.6,.85,430.08,20.82,440.37,45.06,20.1,184.19,27.06,200.58c2.28,5.38,417.66-183.7,419.97-178.27C451.79,33.53,18.67,189.5,27.06,209.27,36.53,231.59,460.66,21.05,462.16,24.59,468.79,40.22,24.45,211.81,27.06,217.96c3.1,7.3,195.58-84.73,196.2-83.28,4.75,11.19-199.48,84.25-196.2,91.97,2.65,6.24,190.63-93.28,195.08-82.81,3.85,9.06-199.51,81.06-195.08,91.5,3.27,7.69,193.46-86.61,195.08-82.81,.69,1.62-199.93,80.04-195.07,91.49,3.79,8.93,193.85-85.69,195.07-82.8,2.94,6.93-195.61,89.93-194.97,91.45,.44,1.03,191.29-91.42,194.97-82.76,3.25,7.65-196.54,86.98-194.7,91.33,3.24,7.63,190.78-91.88,194.7-82.64,2.49,5.87-197.21,84.1-194.23,91.14,1.87,4.4,193.84-83.35,194.23-82.44,4.55,10.73-194.39,88.79-193.52,90.84,.64,1.51,192.93-83.53,193.52-82.14,2.02,4.76-197.07,79.77-192.55,90.42,2.07,4.87,191.33-84.6,192.55-81.73,1.93,4.55-191.39,89.52-191.24,89.87,1.55,3.66,186.78-91.7,191.24-81.18,2.83,6.66-193.9,78.96-189.57,89.16,1.86,4.37,188.67-82.58,189.57-80.47,3.63,8.54-189.56,83.3-187.46,88.26s183.13-89.78,187.46-79.57c2.36,5.56-189.25,76.79-184.85,87.16,.54,1.28,183.98-80.52,184.85-78.46,4.58,10.79-182.49,83.85-181.67,85.8,3.99,9.4,178.31-85.02,181.67-77.11,4.51,10.63-181.22,76.17-177.82,84.17,1.13,2.67,177.45-78.56,178.61-75.82,1.66,3.92-176.82,75.92-174.01,82.55,1.7,4.01,178.18-76.04,178.32-75.69,.7,1.65-173.03,81.61-172.84,82.06,.26,.61,178.69-87.31,182.81-77.6,.87,2.05-179.86,75.28-176.35,83.55,4.47,10.54,467.95-212.86,473.07-200.8,2.44,5.74-472.35,190.11-465.49,206.28,10.52,24.79,464.89-199,465.49-197.59,2.38,5.61-464.88,183.14-456.65,202.53s455.65-196.19,456.65-193.84c2.24,5.28-446.67,197.57-446.41,198.18,10.71,25.23,435.48-215.26,446.41-189.49,5.41,12.75-445.05,168.55-434.61,193.17,.59,1.39,431.95-190.74,434.61-184.48,4.89,11.53-425.62,176.74-421.08,187.43,5.22,12.3,420.9-179.18,421.08-178.74,1.12,2.63-405.81,180.59-405.68,180.89,3.7,8.71,399.95-185.69,405.68-172.2,7.09,16.71-395.39,156.71-388.26,173.5,9.85,23.22,384.47-173.73,388.26-164.81,.85,2-376.57,146.68-368.71,165.2,4.32,10.17,367.44-159.49,368.71-156.51,7.41,17.46-349.1,154.47-348.23,156.51,1.86,4.39,342.86-160.48,348.23-147.82,6.16,14.52-328.42,146.27-327.76,147.82,8.22,19.37,327.67-139.33,327.76-139.13,5.11,12.03-309.58,133.72-307.29,139.13,2.63,6.19,303.97-138.19,307.27-130.43,2.46,5.8-291.99,118.18-286.79,130.43,4.36,10.26,283.75-128.48,286.64-121.67,5.85,13.77-267.53,118.47-266.17,121.67,5.73,13.5,263.01-119.47,265.83-112.84,5.92,13.95-250.4,100.95-245.35,112.84,3.81,8.97,238.91-117.76,244.79-103.91,.52,1.24-229.63,91.39-224.31,103.91s222.02-98.26,223.47-94.86-207.94,83.2-202.99,94.86c2.34,5.52,196.7-97.63,201.78-85.65,.33,.79-181.87,84.34-181.31,85.65,.3,.7,176.42-83.8,179.63-76.25,.7,1.64-160.97,71.98-159.15,76.25,3.57,8.41,153.33-74.76,156.81-66.56,3.16,7.46-139.75,58.53-136.34,66.56,1.98,4.67,131.34-60.49,133.04-56.47,.87,2.05-112.55,55.38-112.16,56.3,2.73,6.43,107.05-46.19,107.32-45.55,.08,.19-85.75,39.39-83.7,44.22,.8,1.9,75.26-33.34,75.77-32.16"/>
    </g>
    <path class="cls-3" d="M515.03,46.25c-18.51-22.19-52.69-31.25-117.97-31.25H160.11c-66.77,0-101.53,9.64-119.97,33.27-17.98,23.04-17.98,56.98-17.98,103.96v89.54c0,91.02,21.33,137.23,137.95,137.23h236.95c56.61,0,87.97-7.99,108.27-27.57,20.81-20.08,29.69-52.88,29.69-109.65v-89.54c0-49.55-1.39-83.69-19.99-105.98Zm-163.61,163.12l-107.6,56.71c-2.41,1.27-5.04,1.9-7.66,1.9-2.98,0-5.94-.81-8.57-2.41-4.95-3.02-7.97-8.44-7.97-14.27v-113.06c0-5.83,3.01-11.23,7.95-14.26,4.94-3.03,11.09-3.23,16.21-.55l107.6,56.35c5.47,2.87,8.91,8.57,8.92,14.78,0,6.22-3.42,11.93-8.88,14.81Z"/>
  </g>
</svg>